<?xml version="1.0" encoding="utf-8"?>
<!-- Generator: Adobe Illustrator 16.0.0, SVG Export Plug-In . SVG Version: 6.00 Build 0)  -->
<!DOCTYPE svg PUBLIC "-//W3C//DTD SVG 1.1//EN" "http://www.w3.org/Graphics/SVG/1.1/DTD/svg11.dtd">
<svg version="1.1" id="Layer_1" xmlns="http://www.w3.org/2000/svg" xmlns:xlink="http://www.w3.org/1999/xlink" x="0px" y="0px"
	 width="64px" height="64px" viewBox="0 0 64 64" enable-background="new 0 0 64 64" xml:space="preserve">
<g>
	<defs>
		<rect id="SVGID_1_" width="64" height="64"/>
	</defs>
	<clipPath id="SVGID_2_">
		<use xlink:href="#SVGID_1_"  overflow="visible"/>
	</clipPath>
	<g clip-path="url(#SVGID_2_)">
		<defs>
			<rect id="SVGID_3_" width="64" height="64"/>
		</defs>
		<clipPath id="SVGID_4_">
			<use xlink:href="#SVGID_3_"  overflow="visible"/>
		</clipPath>
		<path clip-path="url(#SVGID_4_)" fill="#E0E0D1" d="M64,32c0,17.673-14.327,32-32,32S0,49.673,0,32S14.327,0,32,0S64,14.327,64,32
			"/>
		<g opacity="0.2" clip-path="url(#SVGID_4_)">
			<g>
				<defs>
					<rect id="SVGID_5_" x="12" y="15.84" width="38.159" height="34.898"/>
				</defs>
				<clipPath id="SVGID_6_">
					<use xlink:href="#SVGID_5_"  overflow="visible"/>
				</clipPath>
				<path clip-path="url(#SVGID_6_)" fill="#231F20" d="M49.865,16.134c-1.933-1.933-13.04,6.04-19.874,12.874
					c-3.363,3.363-5.058,5.82-5.689,7.682c-2.109-0.205-4.403,0.572-5.914,2.082c-0.968,0.968-1.498,2.042-1.894,3.203
					C15.733,44.206,15,47.001,12,48.989c2.236,2.237,10.984,2.865,15.227-1.378c0.448-0.448,0.831-0.967,1.144-1.529
					c0.74-1.327,1.067-2.897,0.925-4.379c1.863-0.628,4.324-2.323,7.695-5.694C43.825,29.174,51.799,18.067,49.865,16.134"/>
			</g>
		</g>
		<path clip-path="url(#SVGID_4_)" fill="#E0995E" d="M29.991,27.009c-6.834,6.834-6.807,9.941-4.874,11.874s5.04,1.96,11.874-4.874
			s14.807-17.941,12.874-19.874C47.932,12.202,36.825,20.175,29.991,27.009"/>
		<path clip-path="url(#SVGID_4_)" fill="#C75C5C" d="M12,46.99c2.236,2.236,10.984,2.864,15.227-1.379
			c0.449-0.448,0.831-0.967,1.144-1.528c-6.637-0.198-10.145-2.408-11.876-4.108C15.733,42.207,15,45,12,46.99"/>
		<path clip-path="url(#SVGID_4_)" fill="#4F5D73" d="M27.757,36.242c-2.441-2.44-6.928-1.909-9.369,0.53
			c-0.968,0.968-1.498,2.042-1.894,3.202c1.732,1.7,5.131,6.942,11.877,4.108C29.761,41.59,29.75,38.234,27.757,36.242"/>
		<path clip-path="url(#SVGID_4_)" fill="#C75C5C" d="M16.495,39.975c0,0,4.022-0.764,5.938,2.06
			c1.917,2.823,5.939,2.049,5.939,2.049l-5.205,2.875l-5.208-3.791L16.495,39.975z"/>
	</g>
</g>
</svg>
