<?xml version="1.0" encoding="utf-8"?>
<!-- Generator: Adobe Illustrator 16.0.0, SVG Export Plug-In . SVG Version: 6.00 Build 0)  -->
<!DOCTYPE svg PUBLIC "-//W3C//DTD SVG 1.1//EN" "http://www.w3.org/Graphics/SVG/1.1/DTD/svg11.dtd">
<svg version="1.1" id="Layer_1" xmlns="http://www.w3.org/2000/svg" xmlns:xlink="http://www.w3.org/1999/xlink" x="0px" y="0px"
	 width="64px" height="64px" viewBox="0 0 64 64" enable-background="new 0 0 64 64" xml:space="preserve">
<g>
	<path fill="#4F5D73" d="M32,0C14.327,0,0,14.327,0,32s14.327,32,32,32s32-14.327,32-32S49.673,0,32,0z M36.991,34.009
		c-3.37,3.37-5.831,5.067-7.695,5.694c0.143,1.481-0.184,3.051-0.925,4.38c-0.313,0.562-0.695,1.08-1.144,1.529
		C22.984,49.854,14.236,49.226,12,46.99c3-1.99,3.733-4.784,4.495-7.016c0.395-1.161,0.925-2.233,1.893-3.202
		c1.511-1.511,3.805-2.286,5.914-2.082c0.631-1.861,2.326-4.318,5.689-7.682c6.834-6.834,17.94-14.807,19.874-12.874
		C51.798,16.068,43.825,27.175,36.991,34.009z"/>
	<path fill="#FFFFFF" d="M29.991,27.009c-3.363,3.363-5.058,5.82-5.689,7.682c-2.109-0.204-4.403,0.571-5.914,2.082
		c-0.968,0.969-1.498,2.041-1.893,3.202C15.733,42.206,15,45,12,46.99c2.236,2.235,10.984,2.864,15.227-1.378
		c0.449-0.449,0.831-0.968,1.144-1.529c0.741-1.329,1.068-2.898,0.925-4.38c1.864-0.627,4.325-2.324,7.695-5.694
		c6.834-6.834,14.807-17.941,12.874-19.874C47.932,12.202,36.825,20.175,29.991,27.009z"/>
</g>
</svg>
