<?xml version="1.0" encoding="utf-8"?>
<!-- Generator: Adobe Illustrator 16.0.0, SVG Export Plug-In . SVG Version: 6.00 Build 0)  -->
<!DOCTYPE svg PUBLIC "-//W3C//DTD SVG 1.1//EN" "http://www.w3.org/Graphics/SVG/1.1/DTD/svg11.dtd">
<svg version="1.1" id="Layer_1" xmlns="http://www.w3.org/2000/svg" xmlns:xlink="http://www.w3.org/1999/xlink" x="0px" y="0px"
	 width="19.001px" height="19.001px" viewBox="0 0 19.001 19.001" enable-background="new 0 0 19.001 19.001" xml:space="preserve">
<g>
	<path d="M15.872,3.38c0.043,0.421-0.007,0.76-0.146,1.012c-0.1,0.141-0.166,0.363-0.199,0.665
		c-0.037,0.302-0.083,0.517-0.138,0.643c-0.1,0.225-0.223,0.556-0.37,0.991c-0.148,0.436-0.258,0.746-0.326,0.929
		c-0.113,0.267-0.262,0.657-0.442,1.17c-0.183,0.512-0.316,0.889-0.402,1.127c-0.014,0-0.083,0.162-0.21,0.485
		c0.141,0.168,0.237,0.271,0.296,0.306c0.055,0.034,0.182,0.074,0.377,0.117c-0.014,0.014-0.033,0.057-0.061,0.125
		c-0.028,0.072-0.046,0.12-0.053,0.147c-0.01,0.029-0.02,0.072-0.033,0.127c-0.014,0.057-0.014,0.1,0,0.127s0.04,0.063,0.074,0.104
		c0.035,0.043,0.079,0.078,0.139,0.104c-0.127,0.282-0.213,0.473-0.256,0.571h-0.885c-0.154,0.239-0.24,0.359-0.254,0.359
		c-0.027,0.142-0.079,0.364-0.157,0.673c-0.076,0.311-0.132,0.529-0.159,0.655c-0.026,0.126-0.07,0.347-0.137,0.663
		c-0.063,0.317-0.086,0.546-0.072,0.687s0.028,0.365,0.042,0.675c0.041,0.043,0.113,0.113,0.21,0.211
		c0.493-0.183,0.843-0.514,1.056-0.992h0.25c-0.067,0.17-0.153,0.338-0.25,0.508c-0.1,0.169-0.229,0.36-0.39,0.58
		c-0.163,0.216-0.272,0.374-0.327,0.474c-0.199,0.282-0.415,0.38-0.655,0.295c-0.673-0.52-0.992-1.257-0.948-2.214
		c0.014-0.1,0.069-0.837,0.169-2.214c-0.898,0.097-1.785,0.414-2.657,0.947c-0.24,0.31-0.367,0.473-0.381,0.486
		c-0.055,0.057-0.204,0.197-0.442,0.421c-0.24,0.227-0.408,0.408-0.507,0.549c-0.098,0.127-0.256,0.285-0.474,0.474
		c-0.218,0.19-0.362,0.327-0.433,0.412c-0.45,0.521-0.963,0.737-1.54,0.654H4.885c-0.661-0.395-1.09-1.047-1.286-1.963
		c-0.028-0.098-0.092-0.329-0.19-0.695c-0.099-0.365-0.161-0.653-0.189-0.864c-0.015-0.098-0.032-0.225-0.053-0.379
		c-0.021-0.155-0.035-0.255-0.042-0.295c-0.007-0.042-0.01-0.114-0.01-0.212s0.01-0.19,0.032-0.272
		c0.021-0.087,0.052-0.199,0.094-0.34c0.015-0.083,0.021-0.14,0.021-0.168c-0.057-0.338,0.049-0.763,0.317-1.276
		c0.267-0.513,0.415-0.861,0.443-1.044c0.014-0.027,0.032-0.049,0.052-0.063C4.094,8.85,4.129,8.829,4.179,8.801
		c0.049-0.029,0.081-0.049,0.095-0.064v0.928c0.154-0.069,0.309-0.141,0.463-0.211c0,0.015,0.007,0.028,0.021,0.043
		C4.772,9.51,4.794,9.524,4.822,9.538C4.85,9.554,4.871,9.566,4.885,9.58C5.04,9.427,5.142,9.303,5.191,9.212
		C5.24,9.121,5.335,8.878,5.476,8.484c0.252-0.07,0.492-0.302,0.716-0.696c0.226-0.393,0.45-0.654,0.676-0.78
		C6.812,7.233,6.776,7.353,6.763,7.367C6.622,7.577,6.411,7.89,6.129,8.305C5.848,8.72,5.687,8.962,5.644,9.032
		c0,0.042,0,0.07,0,0.085C5.518,9.244,5.405,9.385,5.307,9.538c-0.099,0.155-0.186,0.338-0.263,0.55
		c-0.078,0.21-0.131,0.363-0.159,0.464c-0.028,0.1-0.077,0.295-0.147,0.59s-0.112,0.472-0.126,0.526
		c-0.015,0.042-0.07,0.212-0.169,0.507c-0.099,0.296-0.155,0.534-0.168,0.717c0,0.071,0.01,0.198,0.032,0.38
		c0.021,0.183,0.021,0.34,0,0.474c-0.021,0.134-0.082,0.251-0.18,0.349c0.113,0.098,0.165,0.251,0.158,0.454
		s0.003,0.368,0.032,0.495c0.155,0,0.271,0.007,0.348,0.021s0.187,0,0.327-0.041s0.243-0.07,0.306-0.086
		c0.063-0.014,0.158-0.052,0.284-0.115c0.127-0.063,0.221-0.108,0.285-0.135c0.063-0.03,0.157-0.083,0.285-0.16
		c0.126-0.077,0.218-0.129,0.274-0.158c0-0.084,0.042-0.161,0.126-0.231s0.168-0.127,0.253-0.168
		c0.084-0.043,0.154-0.106,0.211-0.191c0.056-0.083,0.049-0.183-0.021-0.295c0.169-0.126,0.401-0.295,0.696-0.506v-0.802h0.379
		c0.887-0.76,1.562-1.63,2.026-2.614c0.137-0.071,0.254-0.166,0.347-0.285s0.176-0.264,0.253-0.433
		c0.076-0.169,0.152-0.295,0.22-0.379c0.087-0.127,0.217-0.313,0.393-0.56c0.176-0.246,0.313-0.432,0.412-0.559
		c0.097-0.126,0.213-0.327,0.347-0.601c0.134-0.275,0.236-0.468,0.306-0.58c0.73-1.11,1.216-2.074,1.455-2.89
		C13.841,3.233,13.92,3.141,14.061,3c0.141-0.14,0.183-0.28,0.123-0.421c0.154-0.126,0.36-0.302,0.615-0.527
		C15.063,2.375,15.423,2.818,15.872,3.38z M3.746,10.847c0.169,0.197,0.289,0.331,0.359,0.4c0.196-0.21,0.4-0.428,0.612-0.654
		C4.674,10.564,4.569,10.51,4.4,10.425c-0.168-0.085-0.288-0.148-0.359-0.19C4,10.319,3.947,10.425,3.884,10.552
		C3.82,10.678,3.774,10.776,3.746,10.847z M5.138,7.197c-0.183,0.676-0.471,1.188-0.864,1.54c0.014-0.07,0.017-0.129,0.01-0.179
		C4.277,8.509,4.281,8.45,4.295,8.378c0.013-0.069,0.042-0.133,0.084-0.19c0.069-0.07,0.147-0.182,0.232-0.337
		c0.084-0.154,0.147-0.26,0.189-0.316C4.814,7.507,4.928,7.395,5.138,7.197z M5.644,6.523c0.014,0.112-0.007,0.215-0.063,0.306
		C5.525,6.92,5.465,6.991,5.402,7.04C5.339,7.088,5.25,7.142,5.138,7.197C5.125,7.085,5.145,6.984,5.201,6.892
		s0.116-0.159,0.18-0.201S5.532,6.594,5.644,6.523z M6.067,15.571c0.295-0.309,0.534-0.569,0.716-0.782
		c-0.535,0.186-0.928,0.437-1.181,0.761C5.729,15.564,5.884,15.571,6.067,15.571z M6.847,5.321L5.813,6.354
		c0-0.07-0.003-0.126-0.011-0.169C5.795,6.143,5.813,6.098,5.855,6.049c0.042-0.05,0.074-0.085,0.095-0.106
		C5.971,5.921,6.01,5.89,6.067,5.848c0.056-0.042,0.094-0.074,0.116-0.095C6.203,5.732,6.256,5.668,6.34,5.563
		c0.084-0.104,0.162-0.175,0.232-0.21S6.734,5.307,6.847,5.321z M7.542,4.836c-0.057,0.07-0.098,0.112-0.126,0.126L7.374,4.92
		c0.014-0.014,0.035-0.035,0.063-0.063C7.465,4.829,7.486,4.808,7.5,4.793l0.021,0.021C7.69,4.66,7.96,4.498,8.334,4.33
		C8.705,4.16,8.956,4.035,9.083,3.95c0.673,0.548,1.116,0.9,1.329,1.054c0.083,0.999-0.03,1.877-0.34,2.636
		c-0.029,0.085-0.083,0.225-0.169,0.422C9.821,8.259,9.756,8.407,9.715,8.505c0,0.028-0.084,0.282-0.255,0.759
		c-0.308,0.309-0.511,0.619-0.61,0.928c-0.014,0.07-0.041,0.141-0.084,0.211c-0.043,0.071-0.081,0.128-0.115,0.168
		c-0.036,0.042-0.093,0.104-0.169,0.18c-0.078,0.078-0.127,0.132-0.147,0.158c-0.021,0.028-0.117,0.118-0.285,0.265
		c-0.169,0.148-0.268,0.263-0.295,0.348c-0.028,0.113-0.109,0.207-0.243,0.285c-0.134,0.076-0.214,0.137-0.243,0.178H7.164
		c-0.211-0.111-0.387-0.253-0.528-0.423c-0.141-0.168-0.253-0.37-0.337-0.61c-0.084-0.238-0.141-0.431-0.169-0.579
		c-0.028-0.147-0.063-0.369-0.106-0.665C5.995,9.524,6.01,9.328,6.067,9.117c0.056-0.211,0.123-0.387,0.2-0.528
		C6.344,8.45,6.45,8.266,6.583,8.041c0.133-0.225,0.228-0.386,0.285-0.485c0.196,0,0.33,0,0.4,0l0.043,0.105
		c-0.24,0.535-0.331,0.95-0.274,1.245c0.169-0.113,0.372-0.26,0.611-0.443C7.662,8.618,7.68,8.808,7.701,9.032
		c0.021,0.226,0.032,0.353,0.032,0.381c0.099-0.155,0.235-0.359,0.411-0.612C8.319,8.547,8.421,8.4,8.45,8.357
		C8.52,8.188,8.632,7.947,8.788,7.63c0.155-0.316,0.277-0.57,0.368-0.759c0.092-0.189,0.18-0.428,0.265-0.716
		c0.085-0.289,0.134-0.567,0.146-0.833c-0.04,0.014-0.1,0.028-0.167,0.042c-0.072,0.015-0.134,0.028-0.19,0.042
		C9.152,5.419,9.101,5.43,9.051,5.437C9,5.443,8.903,5.489,8.755,5.574C8.608,5.658,8.484,5.693,8.386,5.679V5.405
		c0.127-0.042,0.189-0.07,0.189-0.084C8.661,5.265,8.949,5.032,9.44,4.625C9.342,4.541,9.244,4.496,9.145,4.487
		C9.047,4.48,8.966,4.498,8.903,4.541S8.762,4.628,8.671,4.677C8.579,4.727,8.5,4.759,8.428,4.772
		C8.415,4.759,8.372,4.724,8.302,4.667C8.119,4.695,7.859,4.744,7.521,4.814L7.542,4.836z M6.847,14.728
		c0.309,0.014,0.485-0.161,0.527-0.529c-0.351,0.03-0.534,0.213-0.548,0.55v-0.021H6.847z M7.037,5.173L6.994,5.151
		C7.008,5.124,7.03,5.096,7.058,5.067c0.027-0.028,0.048-0.049,0.063-0.063l0.043,0.063c-0.015,0-0.036,0.014-0.064,0.042
		S7.05,5.16,7.037,5.173z M7.037,6.839c0-0.014,0-0.028,0-0.042s0-0.027,0-0.042c0.141-0.028,0.231-0.048,0.274-0.063l0.021,0.147
		H7.037z M7.564,6.438c0,0.028-0.043,0.043-0.127,0.043S7.311,6.466,7.311,6.438c0-0.027,0.042-0.042,0.126-0.042
		S7.564,6.411,7.564,6.438z M7.585,14.178c0.098-0.223,0.169-0.37,0.21-0.442H7.5c0.014,0.042,0.028,0.106,0.042,0.19
		S7.571,14.094,7.585,14.178z M7.859,6.017c0.069-0.254,0.246-0.366,0.527-0.338C8.316,5.933,8.14,6.045,7.859,6.017l0.021,0.02
		C7.866,6.052,7.845,6.074,7.816,6.101C7.788,6.129,7.774,6.15,7.774,6.165L7.711,6.122c0.014-0.014,0.035-0.035,0.063-0.063
		S7.831,6.01,7.859,5.995V6.017z M10.621,11.48c0.154,0.098,0.323,0.146,0.508,0.146C10.929,11.57,10.762,11.521,10.621,11.48z
		 M12.941,8.864c0.068-0.169,0.138-0.349,0.2-0.538c0.063-0.19,0.13-0.415,0.201-0.675c0.069-0.26,0.128-0.445,0.169-0.559
		c-0.183,0.028-0.296,0.098-0.337,0.211c-0.059,0.126-0.116,0.253-0.183,0.379c-0.061,0.127-0.15,0.271-0.26,0.433
		c-0.113,0.162-0.189,0.271-0.224,0.327c-0.035,0.057-0.133,0.189-0.295,0.401c-0.161,0.211-0.251,0.323-0.264,0.337
		c-0.337,0.451-0.732,1.027-1.182,1.729c-0.014,0.028-0.021,0.063-0.021,0.105s0.004,0.091,0.011,0.147
		c0.006,0.057,0.01,0.092,0.01,0.104c0.296,0.059,0.463,0.086,0.509,0.086c0,0.015-0.004,0.034-0.011,0.063
		c-0.012,0.028-0.015,0.052-0.015,0.065c-0.11,0-0.167,0.006-0.167,0.02l0.192,0.105c0.054-0.014,0.123-0.031,0.209-0.054
		c0.085-0.021,0.171-0.045,0.264-0.071c0.09-0.03,0.171-0.051,0.24-0.065l-0.209-0.21c0.336-0.197,0.563-0.534,0.676-1.013
		C12.526,9.842,12.687,9.397,12.941,8.864z M11.507,11.71c0.1,0.045,0.22,0.086,0.36,0.127l-0.173-0.188
		C11.654,11.662,11.592,11.682,11.507,11.71z M14.015,14.812l0.193-0.17c-0.018,0.071-0.037,0.147-0.064,0.232
		c-0.028,0.085-0.049,0.148-0.063,0.189C14.037,14.923,14.015,14.841,14.015,14.812z"/>
</g>
</svg>
