<?xml version="1.0" encoding="UTF-8" standalone="no"?>
<!-- Created with Inkscape (http://www.inkscape.org/) -->

<svg
   xmlns:dc="http://purl.org/dc/elements/1.1/"
   xmlns:cc="http://creativecommons.org/ns#"
   xmlns:rdf="http://www.w3.org/1999/02/22-rdf-syntax-ns#"
   xmlns:svg="http://www.w3.org/2000/svg"
   xmlns="http://www.w3.org/2000/svg"
   xmlns:sodipodi="http://sodipodi.sourceforge.net/DTD/sodipodi-0.dtd"
   xmlns:inkscape="http://www.inkscape.org/namespaces/inkscape"
   version="1.1"
   id="svg10"
   width="327"
   height="327"
   viewBox="0 0 327 327"
   sodipodi:docname="dfc-land2.svg"
   inkscape:version="0.92.2 (5c3e80d, 2017-08-06)">
  <metadata
     id="metadata16">
    <rdf:RDF>
      <cc:Work
         rdf:about="">
        <dc:format>image/svg+xml</dc:format>
        <dc:type
           rdf:resource="http://purl.org/dc/dcmitype/StillImage" />
        <dc:title></dc:title>
      </cc:Work>
    </rdf:RDF>
  </metadata>
  <defs
     id="defs14" />
  <sodipodi:namedview
     pagecolor="#ffffff"
     bordercolor="#666666"
     borderopacity="1"
     objecttolerance="10"
     gridtolerance="10"
     guidetolerance="10"
     inkscape:pageopacity="0"
     inkscape:pageshadow="2"
     inkscape:window-width="1920"
     inkscape:window-height="1017"
     id="namedview12"
     showgrid="false"
     inkscape:zoom="2.6402439"
     inkscape:cx="164"
     inkscape:cy="148.84988"
     inkscape:window-x="-8"
     inkscape:window-y="-8"
     inkscape:window-maximized="1"
     inkscape:current-layer="svg10" />
  <path
     style="fill:#000000;stroke-width:0.99769622"
     d="M 146.55145,326.40568 C 108.60954,322.3249 72.895923,304.68654 45.689053,276.5914 20.86402,250.95587 6.0909385,220.29286 1.3268459,184.51326 -3.862765,145.53782 6.3249896,103.74098 29.186331,70.215425 36.922377,58.870723 54.44203,40.69279 65.617293,32.415624 99.700831,7.1710128 143.04658,-4.1359171 184.66409,1.361743 c 34.72399,4.587027 66.3529,19.768241 91.43471,43.886741 25.77409,24.78419 42.61208,56.049056 48.50731,90.068576 15.00122,86.56749 -42.06206,170.86844 -127.41383,188.23149 -14.92522,3.03622 -37.25966,4.29633 -50.64083,2.85713 z m 44.39965,-7.75502 c 20.67822,-3.59961 44.84555,-13.61873 61.92966,-25.67433 35.52962,-25.07191 58.49718,-61.04765 65.79041,-103.05226 2.04073,-11.75335 2.30815,-36.48678 0.53396,-49.38355 C 314.48298,106.21478 298.44194,75.638845 271.50286,49.614866 239.09327,18.306231 196.84926,3.3411865 151.06793,6.9505038 135.22214,8.1997569 126.22136,9.947096 112.97601,14.345353 70.691046,28.386536 33.277634,64.213797 16.743802,106.4978 8.2728173,128.16168 4.6300802,153.2232 6.6731926,175.78217 c 3.8665514,42.69249 23.3312094,81.02012 54.3770124,107.07316 26.101558,21.90393 53.242495,33.32673 89.492225,37.66456 6.81502,0.81552 31.56204,-0.32923 40.40867,-1.86923 z M 140.56498,301.74889 C 110.72683,296.44633 85.202698,283.00241 63.738619,261.2834 45.285236,242.61082 34.783241,223.79178 27.535242,196.40878 c -2.878394,-10.87461 -3.041216,-12.51355 -3.122153,-31.4259 -0.06845,-15.98635 0.283549,-21.63875 1.770468,-28.43295 9.772015,-44.651295 37.367805,-80.234334 76.965993,-99.242799 17.52254,-8.411417 34.36306,-12.469211 54.87597,-13.222597 63.36965,-2.327408 118.70598,35.994809 138.27737,95.761616 5.27096,16.09636 7.21789,30.69082 6.55369,49.12732 -0.59938,16.63736 -1.90888,24.50567 -6.30932,37.9106 -15.61524,47.56821 -54.61427,82.54782 -104.59841,93.81797 -9.66857,2.18002 -41.37279,2.82593 -51.38387,1.04685 z m 54.87597,-58.49193 c 22.89094,-2.05899 51.33933,-8.58829 62.86562,-14.42853 6.32534,-3.20499 12.35323,-8.58619 13.95832,-12.46085 2.5055,-6.04823 0.81809,-9.19968 -12.28475,-22.94326 -15.46198,-16.21808 -18.44115,-21.16843 -28.03689,-46.58746 -4.81893,-12.76534 -11.19798,-19.25461 -18.93486,-19.26203 -3.33467,-0.003 -4.53429,0.67177 -8.48083,4.77174 -2.52822,2.62651 -6.6475,8.14252 -9.15396,12.2578 -3.19526,5.24619 -5.58073,7.98078 -7.98196,9.15012 l -3.42475,1.66776 -6.30006,-6.19381 C 166.9113,138.6543 160.5584,127.65327 146.55992,95.362051 c -3.99262,-9.210032 -8.08718,-17.797885 -9.09904,-19.08412 -5.3282,-6.77306 -15.96604,-1.046987 -21.15512,11.387268 -0.80146,1.920471 -4.7117,13.592951 -8.68943,25.938841 -12.405481,38.50353 -20.884418,55.41746 -35.654586,71.1244 -14.54792,15.47058 -18.723493,22.31304 -17.927203,29.37703 0.629348,5.58308 3.339972,8.49458 11.967423,12.85433 14.656714,7.40654 28.085603,11.19935 52.612626,14.85977 12.8041,1.91089 19.7569,2.3219 40.40867,2.38874 13.71899,0.0444 30.10696,-0.38371 36.41769,-0.95135 z"
     id="path38"
     inkscape:connector-curvature="0" />
</svg>
