<?xml version="1.0" encoding="UTF-8" standalone="no"?>
<!-- Created with Inkscape (http://www.inkscape.org/) -->

<svg
   xmlns:dc="http://purl.org/dc/elements/1.1/"
   xmlns:cc="http://creativecommons.org/ns#"
   xmlns:rdf="http://www.w3.org/1999/02/22-rdf-syntax-ns#"
   xmlns:svg="http://www.w3.org/2000/svg"
   xmlns="http://www.w3.org/2000/svg"
   xmlns:sodipodi="http://sodipodi.sourceforge.net/DTD/sodipodi-0.dtd"
   xmlns:inkscape="http://www.inkscape.org/namespaces/inkscape"
   version="1.1"
   id="svg10"
   width="327"
   height="327"
   viewBox="0 0 327 327"
   sodipodi:docname="dfc-sun.svg"
   inkscape:version="0.92.2 (5c3e80d, 2017-08-06)">
  <metadata
     id="metadata16">
    <rdf:RDF>
      <cc:Work
         rdf:about="">
        <dc:format>image/svg+xml</dc:format>
        <dc:type
           rdf:resource="http://purl.org/dc/dcmitype/StillImage" />
        <dc:title></dc:title>
      </cc:Work>
    </rdf:RDF>
  </metadata>
  <defs
     id="defs14" />
  <sodipodi:namedview
     pagecolor="#ffffff"
     bordercolor="#666666"
     borderopacity="1"
     objecttolerance="10"
     gridtolerance="10"
     guidetolerance="10"
     inkscape:pageopacity="0"
     inkscape:pageshadow="2"
     inkscape:window-width="1920"
     inkscape:window-height="1017"
     id="namedview12"
     showgrid="false"
     inkscape:zoom="2.5939942"
     inkscape:cx="128.45477"
     inkscape:cy="194.68047"
     inkscape:window-x="-8"
     inkscape:window-y="-8"
     inkscape:window-maximized="1"
     inkscape:current-layer="svg10" />
  <path
     style="fill:#000000;stroke-width:0.63938969"
     d="M 144.33009,326.26623 C 106.26264,321.1799 73.372746,305.09053 47.011278,278.65896 22.579894,254.16262 6.7345713,222.33001 1.2039985,186.634 -0.40345792,176.25893 -0.40086915,150.96595 1.2089985,140.62 8.5974763,93.128993 34.558174,52.346636 73.690665,26.756625 129.37182,-9.6551181 200.77647,-8.8450269 256.25485,28.827828 c 37.50456,25.467638 62.18412,65.14862 69.5291,111.792172 1.61033,10.22621 1.62409,35.62642 0.0248,45.69446 -3.30576,20.81036 -9.7163,39.99254 -18.79479,56.23934 -25.28837,45.25592 -67.97444,74.85734 -119.84625,83.10956 -9.2231,1.46728 -33.7811,1.81291 -42.8373,0.60287 z m 38.80643,-6.41305 c 24.83393,-3.25122 46.8085,-11.45053 67.53562,-25.19936 36.50321,-24.21352 60.40727,-61.00522 68.38269,-105.25059 1.30981,-7.26646 1.47834,-10.205 1.47834,-25.77623 0,-15.57123 -0.16853,-18.50977 -1.47834,-25.77623 C 314.17287,110.76705 303.70081,87.150717 287.26837,66.16678 266.53998,39.696972 235.63713,19.57965 202.83995,11.205069 187.65838,7.3285364 182.35612,6.7313539 163.1788,6.7381132 143.87973,6.7449035 137.30883,7.555442 121.53174,11.875321 85.094088,21.852209 53.32293,44.911982 31.970213,76.879837 20.288163,94.369424 11.961258,115.44994 8.0223495,137.50663 6.050896,148.54614 5.5617784,171.3963 7.0528301,182.7995 c 3.5984999,27.52041 13.7613629,52.89744 29.8420239,74.51663 25.607915,34.42783 63.537306,56.67631 106.629396,62.54627 8.87616,1.2091 30.34452,1.20411 39.61227,-0.009 z M 145.907,302.6274 C 119.41531,298.8639 96.388852,289.13418 76.069325,273.11785 70.209768,268.49919 58.772241,257.1187 54.022997,251.18142 28.434893,219.19248 18.014193,176.47207 26.0407,136.46596 38.263004,75.546991 87.829588,30.68317 150.02325,24.246568 c 9.81781,-1.016073 26.98104,-0.413834 36.82429,1.292125 24.48953,4.244338 47.42449,14.754763 65.8887,30.19486 6.67771,5.584011 17.29291,16.405135 21.51928,21.936729 19.13948,25.050268 29.33656,54.927928 29.33656,85.956718 0,31.76893 -10.61428,62.16839 -30.49762,87.34558 -4.62308,5.85395 -16.01449,17.28052 -21.95746,22.02521 -18.30036,14.61053 -40.47126,24.51685 -64.28946,28.72558 -10.04143,1.77436 -31.48171,2.24779 -40.94054,0.90403 z m 53.63535,-29.89613 c 4.59978,-12.03919 14.45237,-20.4881 26.9847,-23.14025 2.45275,-0.51905 5.75491,-0.94373 7.33816,-0.94373 6.54856,0 16.12008,3.08624 20.92373,6.74666 l 2.10668,1.6053 -1.93794,-2.86875 c -3.81795,-5.65169 -6.35724,-13.72199 -6.35724,-20.20433 0,-4.71569 1.72834,-11.51247 4.22529,-16.61617 2.72198,-5.56364 9.46275,-12.68215 14.63187,-15.45183 4.87323,-2.61113 12.01738,-4.35772 17.89029,-4.37378 l 5.13042,-0.0141 -2.55878,-1.17479 c -6.39414,-2.93568 -12.96841,-9.43464 -16.38593,-16.19821 -5.02753,-9.94994 -5.07779,-22.83952 -0.12761,-32.72135 3.54856,-7.08382 9.90363,-13.43379 16.38796,-16.37483 l 2.68436,-1.21753 -5.14308,-0.0141 c -17.43477,-0.0476 -32.21537,-12.06061 -35.79465,-29.09233 -0.51708,-2.46048 -0.94014,-5.76774 -0.94014,-7.349472 0,-6.523294 3.08881,-16.104117 6.72911,-20.872234 l 1.58284,-2.073207 -3.36747,2.217984 c -20.62142,13.582345 -48.84248,2.44429 -55.15507,-21.768146 -0.54302,-2.082816 -0.99364,-6.099112 -1.00137,-8.925104 l -0.014,-5.138116 -1.24887,2.749122 c -3.93766,8.667966 -13.47814,16.383683 -23.47499,18.985038 -4.74289,1.234182 -13.61941,1.218979 -18.42515,-0.03155 -8.88746,-2.312618 -17.46062,-8.852358 -22.23187,-16.958733 l -2.39886,-4.075667 v 4.804084 c 0,17.134942 -11.93446,31.632957 -29.19821,35.470104 -8.763368,1.947794 -18.644215,0.159496 -26.248393,-4.750614 l -3.858787,-2.491665 2.096425,3.112285 c 9.497198,14.099264 7.344491,33.415351 -5.085455,45.631201 -7.194832,7.07091 -15.627006,10.54308 -25.603937,10.54308 H 36.58762 l 3.446732,1.71592 c 8.02143,3.99343 15.849122,13.84337 18.216127,22.92221 1.253315,4.80718 1.253315,13.65938 0,18.46656 -2.343287,8.98788 -8.786986,17.42672 -16.983122,22.24157 l -4.079582,2.39657 h 4.808695 c 9.801404,0 18.138494,3.46102 25.239591,10.47784 12.541922,12.39305 14.676988,31.55253 5.100417,45.76963 l -2.145721,3.18547 2.062131,-1.57135 c 4.759849,-3.62704 14.357549,-6.71272 20.879192,-6.71272 1.583247,0 4.893675,0.42265 7.35649,0.93924 16.92913,3.55091 29.10618,18.37207 29.10618,35.42628 v 4.80408 l 2.39886,-4.11077 c 6.53422,-11.19729 18.34078,-17.90852 31.50502,-17.90852 10.46272,0 18.96243,3.63044 26.11722,11.15537 2.41544,2.54041 5.08362,6.03575 5.92927,7.76742 l 1.53756,3.14851 0.40208,-6.40229 c 0.28846,-4.59328 0.86986,-7.62664 2.05759,-10.73533 z m -45.3193,-19.65226 c -11.04067,-1.24044 -21.19261,-4.3103 -31.66496,-9.5752 -16.58662,-8.3388 -31.023772,-22.92786 -39.518326,-39.9341 -14.806377,-29.64264 -11.935101,-65.20498 7.457917,-92.37036 4.981464,-6.97793 13.613809,-15.553636 20.904609,-20.767389 23.07636,-16.502253 53.92051,-21.035349 80.9221,-11.892952 13.46485,4.559031 23.96743,11.182791 34.51989,21.770991 11.00117,11.03842 17.25431,21.04652 21.99161,35.19734 3.24519,9.69376 4.42846,17.20722 4.42846,28.11966 0,10.85248 -1.18332,18.42726 -4.36084,27.91504 -4.57078,13.64793 -10.92288,24.08402 -20.99855,34.49924 -16.39899,16.95164 -37.56171,26.31593 -61.75973,27.32807 -3.74255,0.15655 -9.10752,0.0259 -11.92218,-0.29034 z m 20.15042,-7.94181 c 20.49312,-2.76606 39.34762,-13.1107 52.06274,-28.56457 8.24989,-10.02687 13.80382,-20.68799 16.68146,-32.02116 7.23439,-28.49144 -0.42604,-57.52463 -20.67153,-78.34572 -11.39383,-11.717756 -25.2996,-19.372837 -42.00905,-23.125824 -9.03051,-2.028271 -24.05672,-2.060884 -33.40018,-0.0725 -16.32408,3.473967 -30.06727,10.894455 -41.69875,22.514794 -20.792322,20.77242 -28.862618,50.43051 -21.462733,78.87498 4.200944,16.14808 14.553486,32.53548 26.742443,42.33161 18.80488,15.11327 40.90107,21.49318 63.7556,18.40838 z"
     id="path20"
     inkscape:connector-curvature="0" />
</svg>
