<?xml version="1.0" encoding="UTF-8" standalone="no"?>
<svg
   xmlns:svg="http://www.w3.org/2000/svg"
   xmlns="http://www.w3.org/2000/svg"
   version="1.1"
   width="347"
   height="347">
  <path d="m 347,173.5 a 173.5,173.5 0 0 1 -347,0 173.5,173.5 0 1 1 347,0 z"/>
  <path d="m 340.06,173.5 a 166.56,166.56 0 0 1 -333.12,0 166.56,166.56 0 1 1 333.12,0 z" style="fill:#ffffff"/>
  <path d="m 327.915,173.5 a 154.415,154.415 0 0 1 -308.83,0 154.415,154.415 0 1 1 308.83,0 z"/>
  <path d="m 262.28863,173.5 a 88.788628,88.788628 0 0 1 -177.577255,0 88.788628,88.788628 0 1 1 177.577255,0 z" style="fill:#ffffff"/>
  <path d="M 132.54251,132.54251 C 152.55196,112.53355 173.5,34.5265 173.5,34.5265 l 0,138.9735 z" />
  <path d="M 214.45749,132.54251 C 194.44804,112.53355 173.5,34.526501 173.5,34.526501 L 173.5,173.5 z" style="fill:#ffffff"/>
  <path d="M 214.45749,132.54251 C 234.46645,152.55196 312.4735,173.5 312.4735,173.5 l -138.9735,0 z" />
  <path d="m 214.45749,214.4575 c 20.00896,-20.00945 98.01601,-40.95749 98.01601,-40.95749 l -138.9735,0 z" style="fill:#ffffff"/>
  <path d="M 214.45749,214.45749 C 194.44804,234.46645 173.5,312.4735 173.5,312.4735 l 0,-138.9735 z" />
  <path d="m 132.56657,214.43343 c 20.00945,20.00896 40.95749,98.01601 40.95749,98.01601 l 0,-138.9735 z" style="fill:#ffffff"/>
  <path d="M 132.54251,214.45749 C 112.53355,194.44804 34.5265,173.5 34.5265,173.5 l 138.9735,0 z"/>
  <path d="M 132.54251,132.54251 C 112.53355,152.55196 34.526498,173.5 34.526498,173.5 L 173.5,173.5 z" style="fill:#ffffff"/>
</svg>
