<?xml version="1.0" encoding="utf-8"?>
<!-- Generator: Adobe Illustrator 16.0.0, SVG Export Plug-In . SVG Version: 6.00 Build 0)  -->
<!DOCTYPE svg PUBLIC "-//W3C//DTD SVG 1.1//EN" "http://www.w3.org/Graphics/SVG/1.1/DTD/svg11.dtd">
<svg version="1.1" id="Layer_1" xmlns="http://www.w3.org/2000/svg" xmlns:xlink="http://www.w3.org/1999/xlink" x="0px" y="0px"
	 width="130.788px" height="16.998px" viewBox="0 0 130.788 16.998" enable-background="new 0 0 130.788 16.998"
	 xml:space="preserve">
<g>
	<path fill="#D1BDAD" d="M67.985,13.996c1.175,0,2.348,0,3.524,0c-0.91,0.495-1.806,1.007-2.729,1.484
		c-1.013,0.524-2.05,1.013-3.078,1.518c-4.561,0-9.122,0-13.683,0c0.083-0.394,0.166-0.786,0.273-1.293
		c0.963,0,1.918-0.023,2.872,0.004c2.203,0.061,2.202,0.07,2.245-1.713c0.553,0,1.106,0,1.659,0
		c-0.524,1.039-0.235,1.613,0.883,1.754c1.518,0.191,1.947-0.346,1.398-1.754c1.382,0,2.764,0,4.146,0
		C66.1,14.799,66.792,14.799,67.985,13.996z"/>
	<path fill="#D1BDAD" d="M110.904,16.998c-1.797,0-3.594,0-5.391,0c-0.244-0.327-0.61-0.96-0.713-0.93
		c-0.827,0.24-1.604,0.603-2.396,0.93c-1.037,0-2.073,0-3.11,0c0.662-0.479,1.268-1.036,2.002-1.413
		c1.153-0.595,2.393-1.066,3.596-1.589c1.659,0,3.317,0,4.976,0c0.159,0.276,0.236,0.704,0.49,0.803
		C112.046,15.453,112.188,15.931,110.904,16.998z"/>
	<path fill="#D1BDAD" d="M50.361,16.998c-1.244,0-2.488,0-3.732,0c0.002-0.145,0.042-0.296,0-0.431
		c-0.222-0.726-1.093-1.286-1.904-1.16c-1.014,0.159-0.495,0.848-0.56,1.331c-0.012,0.086-0.016,0.173-0.023,0.26
		c-1.037,0-2.074,0-3.11,0c-0.069-1.001-0.138-2.001-0.208-3.002c3.18,0,6.359,0,9.538,0c-0.02,0.641-0.004,1.286-0.082,1.923
		c-0.024,0.203-0.299,0.383-0.404,0.508C49.981,16.551,50.171,16.774,50.361,16.998z"/>
	<path fill="#D1BDAD" d="M121.479,16.998c-1.867,0-3.733,0-5.599,0c0.069-1.001,0.138-2.001,0.207-3.002c3.525,0,7.05,0,10.575,0
		c0.018,0.174,0.047,0.349,0.051,0.522c0.021,1.06-0.257,1.392-1.23,1.489c-1.71,0.171-2.223-0.06-2.573-1.051
		c-0.078-0.223-0.419-0.514-0.656-0.525c-0.318-0.016-0.883,0.158-0.941,0.339C121.083,15.506,120.781,16.294,121.479,16.998z"/>
	<path fill="#D1BDAD" d="M12.004,13.996c1.175,0,2.35,0,3.525,0c-0.349,1.227-1.208,2.173-2.28,3.002c-2.488,0-4.977,0-7.464,0
		c0.484-1.001,0.967-2.001,1.451-3.002c1.245,0,2.488,0,3.732,0c-0.659,0.38-1.575,0.528-1.799,1.41
		c0.306,0.026,0.537,0.053,0.77,0.064C11.914,15.562,11.914,15.56,12.004,13.996z"/>
	<path fill="#D1BDAD" d="M78.973,16.998c-3.386,0-6.772,0-10.159,0c1.851-0.699,2.696-2.007,4.769-3.002c1.245,0,2.488,0,3.732,0
		c-0.124,0.54-0.247,1.078-0.376,1.645C79.259,15.684,79.418,15.805,78.973,16.998z"/>
	<path fill="#D1BDAD" d="M16.358,13.996c2.558,0,5.115,0,7.671,0c-0.068,1.001-0.138,2.001-0.207,3.002c-1.037,0-2.074,0-3.11,0
		c-0.349-1.195-1.064-1.605-2.531-1.432c-0.054,0.472-0.109,0.952-0.165,1.432c-0.415,0-0.829,0-1.244,0
		C16.635,15.997,16.496,14.997,16.358,13.996z"/>
	<path fill="#D1BDAD" d="M26.31,13.996c2.973,0,5.945,0,8.917,0c-0.26,0.895-0.715,1.438-2.015,1.275
		c-1.138-0.142-2.322-0.019-3.486-0.008c-1.974,0.019-2.041,0.079-1.963,1.735c-0.899,0-1.797,0-2.696,0
		c0.261-0.69,0.509-1.385,0.785-2.071C25.978,14.608,26.156,14.306,26.31,13.996z"/>
	<path fill="#D1BDAD" d="M81.254,13.996c1.797,0,3.595,0,5.391,0c-0.477,1.791-0.477,1.791-1.967,1.76
		c-1.35-0.029-1.415,0.031-1.351,1.242c-1.105,0-2.211,0-3.317,0c0.094-0.537-0.032-1.327,0.331-1.556
		C80.989,15.032,81.229,14.607,81.254,13.996z"/>
	<path fill="#604D46" d="M121.479,16.998c-0.698-0.704-0.395-1.491-0.166-2.228c0.058-0.182,0.623-0.355,0.941-0.339
		c0.237,0.012,0.578,0.303,0.656,0.525c0.35,0.991,0.862,1.222,2.573,1.051c0.973-0.097,1.25-0.429,1.23-1.489
		c-0.004-0.174-0.033-0.349-0.051-0.522c0.208,0,0.416,0,0.623,0c0.099,0.65,0.345,1.153,1.271,1.22
		c0.21,0.014,0.503,0.347,0.557,0.568c0.094,0.391,0.033,0.808,0.037,1.214C126.592,16.998,124.034,16.998,121.479,16.998z"/>
	<path fill="#D1BDAD" d="M97.219,13.996c1.452,0,2.903,0,4.354,0c-0.111,0.064-0.225,0.125-0.331,0.194
		c-1.411,0.935-2.82,1.871-4.23,2.808c-1.452,0-2.903,0-4.354,0c-0.349-1.469-0.11-1.729,1.573-1.701
		c0.476,0.008,0.954,0.031,1.43,0.022C97.001,15.293,97.119,15.188,97.219,13.996z"/>
	<path fill="#D1BDAD" d="M91.414,16.998c-1.175,0-2.35,0-3.524,0c0.005-0.554,0.067-1.112-0.002-1.659
		c-0.057-0.456-0.27-0.896-0.413-1.343c2.696,0,5.391,0,8.087,0c-0.267,0.178-0.518,0.483-0.805,0.511
		c-0.769,0.071-1.556,0.054-2.332,0.014c-0.729-0.039-0.993,0.217-0.969,0.816C91.478,15.889,91.431,16.443,91.414,16.998z"/>
	<path fill="#604D46" d="M50.361,16.998c-0.19-0.224-0.38-0.447-0.485-0.571c0.105-0.125,0.379-0.305,0.404-0.508
		c0.078-0.637,0.062-1.282,0.082-1.923c0.622,0,1.244,0,1.866,0c0.064,0.306,0.128,0.613,0.204,0.978
		c1.362,0.074,2.586-0.062,3.528-0.978c0.484,0,0.968,0,1.451,0c-0.042,1.783-0.042,1.773-2.245,1.713
		c-0.954-0.027-1.909-0.004-2.872-0.004c-0.108,0.508-0.191,0.899-0.273,1.293C51.467,16.998,50.915,16.998,50.361,16.998z"/>
	<path fill="#D1BDAD" d="M3.71,16.998c-1.244,0-2.488,0-3.732,0c0-1.001,0-2.001,0-3.002c0.483,0,0.968,0,1.452,0
		c-0.54,0.598,0.121,0.551,0.469,0.58c1.818,0.147,1.817,0.138,1.79,1.721C3.686,16.529,3.703,16.764,3.71,16.998z"/>
	<path fill="#604D46" d="M3.71,16.998c-0.007-0.234-0.025-0.468-0.021-0.702c0.027-1.583,0.028-1.573-1.79-1.721
		c-0.348-0.028-1.009,0.019-0.469-0.58c1.935,0,3.87,0,5.805,0c-0.483,1.001-0.967,2.001-1.451,3.002
		C5.093,16.998,4.402,16.998,3.71,16.998z"/>
	<path fill="#604D46" d="M27.762,16.998c-0.078-1.656-0.011-1.716,1.963-1.735c1.164-0.011,2.348-0.133,3.486,0.008
		c1.3,0.162,1.755-0.38,2.015-1.275c0.346,0,0.69,0,1.036,0c0,1.001,0,2.001,0,3.002c-0.415,0-0.829,0-1.244,0
		c-0.128-0.851-0.704-1.186-1.694-1.153c-1.131,0.036-2.274,0.087-3.393-0.016c-1.128-0.104-1.615,0.218-1.548,1.169
		C28.177,16.998,27.969,16.998,27.762,16.998z"/>
	<path fill="#604D46" d="M73.583,13.996c-1.386,1.234-2.915,1.501-2.163,3.002c-1.037,0-4.678,0-5.716,0
		c1.027-0.505,2.065-0.994,3.078-1.518c0.923-0.477,1.819-0.989,2.729-1.484C72.201,13.996,72.892,13.996,73.583,13.996z"/>
	<path fill="#604D46" d="M97.013,16.998c1.41-0.937,2.819-1.873,4.23-2.808c0.106-0.069,0.22-0.13,0.331-0.194
		c1.106,0,2.212,0,3.317,0c-1.203,0.522-2.443,0.994-3.596,1.589c-0.734,0.377-1.34,0.935-2.002,1.413
		C98.533,16.998,97.773,16.998,97.013,16.998z"/>
	<path fill="#604D46" d="M87.474,13.996c0.144,0.447,0.356,0.887,0.413,1.343c0.069,0.547,0.007,1.105,0.002,1.659
		c-1.52,0-3.041,0-4.562,0c-0.063-1.211,0.001-1.271,1.351-1.242c1.49,0.031,1.49,0.031,1.967-1.76
		C86.921,13.996,87.197,13.996,87.474,13.996z"/>
	<path fill="#D1BDAD" d="M36.262,16.998c0-1.001,0-2.001,0-3.002c0.899,0,1.797,0,2.696,0c-0.069,1.001-0.139,2.001-0.208,3.002
		C37.921,16.998,37.092,16.998,36.262,16.998z"/>
	<path fill="#604D46" d="M91.414,16.998c0.017-0.554,0.064-1.109,0.042-1.661c-0.023-0.599,0.241-0.855,0.969-0.816
		c0.776,0.04,1.563,0.057,2.332-0.014c0.287-0.028,0.538-0.333,0.805-0.511c0.553,0,1.106,0,1.658,0
		c-0.1,1.192-0.218,1.297-1.558,1.323c-0.477,0.009-0.954-0.014-1.43-0.022c-1.683-0.028-1.921,0.231-1.573,1.701
		C92.243,16.998,91.828,16.998,91.414,16.998z"/>
	<path fill="#D1BDAD" d="M28.383,16.998c-0.066-0.952,0.42-1.273,1.548-1.169c1.119,0.103,2.262,0.052,3.393,0.016
		c0.99-0.033,1.566,0.303,1.694,1.153C32.807,16.998,30.595,16.998,28.383,16.998z"/>
	<path fill="#D1BDAD" d="M129.149,16.998c-0.004-0.406,0.057-0.823-0.037-1.214c-0.054-0.221-0.347-0.555-0.557-0.568
		c-0.927-0.067-1.172-0.569-1.271-1.22c1.16,0,2.321,0,3.504,0c0,1,0,2.001,0,3.002C130.241,16.998,129.696,16.998,129.149,16.998z"
		/>
	<path fill="#D1BDAD" d="M115.05,16.998c-0.76,0-1.52,0-2.28,0c-0.139-1.001-0.277-2.001-0.416-3.002c0.899,0,1.797,0,2.696,0
		C115.05,14.997,115.05,15.997,115.05,16.998z"/>
	<path fill="#604D46" d="M38.75,16.998c0.069-1.001,0.139-2.001,0.208-3.002c0.622,0,1.244,0,1.865,0
		c0.07,1.001,0.139,2.001,0.208,3.002C40.271,16.998,39.511,16.998,38.75,16.998z"/>
	<path fill="#604D46" d="M16.358,13.996c0.138,1.001,0.277,2.001,0.415,3.002c-1.175,0-2.35,0-3.524,0
		c1.072-0.829,1.931-1.775,2.28-3.002C15.805,13.996,16.082,13.996,16.358,13.996z"/>
	<path fill="#604D46" d="M81.254,13.996c-0.024,0.612-0.265,1.036-0.914,1.446c-0.363,0.229-0.236,1.019-0.331,1.556
		c-0.345,0-0.691,0-1.037,0c0.445-1.192,0.286-1.313-2.035-1.357c0.13-0.567,0.253-1.105,0.376-1.645c0.138,0,0.276,0,0.415,0
		c0.741,1.133,1.816,1.133,2.695,0C80.701,13.996,80.978,13.996,81.254,13.996z"/>
	<path fill="#604D46" d="M112.354,13.996c0.139,1.001,0.277,2.001,0.416,3.002c-0.623,0-1.245,0-1.866,0
		c1.284-1.066,1.143-1.544-0.546-2.199c-0.254-0.099-0.331-0.527-0.49-0.803C110.696,13.996,111.525,13.996,112.354,13.996z"/>
	<path fill="#604D46" d="M26.31,13.996c-0.154,0.311-0.332,0.613-0.459,0.931c-0.275,0.686-0.524,1.38-0.785,2.071
		c-0.415,0-0.829,0-1.244,0c0.069-1.001,0.139-2.001,0.207-3.002C24.79,13.996,25.55,13.996,26.31,13.996z"/>
	<path fill="#604D46" d="M61.351,13.996c0.549,1.408,0.12,1.945-1.398,1.754c-1.118-0.142-1.407-0.715-0.883-1.754
		C59.83,13.996,60.59,13.996,61.351,13.996z"/>
	<path fill="#604D46" d="M44.142,16.998c0.007-0.086,0.012-0.174,0.023-0.26c0.065-0.483-0.454-1.172,0.56-1.331
		c0.811-0.126,1.682,0.434,1.904,1.16c0.042,0.135,0.002,0.286,0,0.431C45.8,16.998,44.971,16.998,44.142,16.998z"/>
	<path fill="#604D46" d="M12.004,13.996c-0.09,1.564-0.09,1.566-2.066,1.474c-0.232-0.011-0.464-0.038-0.77-0.064
		c0.224-0.882,1.14-1.029,1.799-1.41C11.313,13.996,11.658,13.996,12.004,13.996z"/>
	<path fill="#604D46" d="M18.017,16.998c0.056-0.48,0.111-0.96,0.165-1.432c1.467-0.174,2.182,0.237,2.531,1.432
		C19.813,16.998,18.916,16.998,18.017,16.998z"/>
	<path fill="#D1BDAD" d="M55.959,13.996c-0.942,0.917-2.167,1.052-3.528,0.978c-0.076-0.365-0.14-0.672-0.204-0.978
		C53.472,13.996,54.715,13.996,55.959,13.996z"/>
	<path fill="#604D46" d="M115.05,16.998c0-1.001,0-2.001,0-3.002c0.345,0,0.691,0,1.036,0c-0.069,1.001-0.138,2.001-0.207,3.002
		C115.603,16.998,115.327,16.998,115.05,16.998z"/>
	<path fill="#604D46" d="M102.403,16.998c0.792-0.327,1.57-0.69,2.396-0.93c0.103-0.03,0.469,0.603,0.713,0.93
		C104.477,16.998,103.44,16.998,102.403,16.998z"/>
	<path fill="#D1BDAD" d="M80.424,13.996c-0.879,1.133-1.954,1.133-2.695,0C78.628,13.996,79.526,13.996,80.424,13.996z"/>
	<path fill="#604D46" d="M67.985,13.996c-1.194,0.804-1.886,0.804-2.488,0C66.326,13.996,67.155,13.996,67.985,13.996z"/>
</g>
<g>
	<path fill="#D1BDAD" d="M21.935,3.004c-1.174,0-2.347,0-3.522,0c0.91-0.496,1.805-1.008,2.728-1.485
		C22.152,0.995,23.189,0.505,24.216,0c4.558,0,9.117,0,13.676,0c-0.083,0.394-0.167,0.787-0.274,1.294
		c-0.962,0-1.917,0.023-2.871-0.004c-2.202-0.061-2.201-0.07-2.244,1.714c-0.553,0-1.105,0-1.658,0
		c0.523-1.04,0.235-1.614-0.882-1.755c-1.517-0.192-1.945,0.347-1.397,1.755c-1.381,0-2.762,0-4.145,0
		C23.82,2.199,23.128,2.199,21.935,3.004z"/>
	<path fill="#D1BDAD" d="M39.55,0c1.243,0,2.487,0,3.73,0c-0.002,0.144-0.041,0.296,0,0.431c0.222,0.727,1.093,1.287,1.903,1.161
		c1.014-0.159,0.495-0.849,0.56-1.331C45.754,0.174,45.759,0.087,45.766,0c1.036,0,2.072,0,3.109,0
		c0.069,1.001,0.138,2.003,0.208,3.004c-3.178,0-6.355,0-9.533,0c0.02-0.642,0.003-1.287,0.082-1.925
		c0.024-0.203,0.298-0.383,0.403-0.508C39.93,0.447,39.74,0.224,39.55,0z"/>
	<path fill="#D1BDAD" d="M77.887,3.004c-1.174,0-2.349,0-3.523,0C74.712,1.776,75.572,0.83,76.642,0c2.488,0,4.975,0,7.461,0
		c-0.483,1.001-0.966,2.003-1.45,3.004c-1.245,0-2.486,0-3.729,0c0.657-0.38,1.574-0.528,1.798-1.41
		c-0.306-0.025-0.537-0.053-0.77-0.063C77.976,1.437,77.976,1.438,77.887,3.004z"/>
	<path fill="#D1BDAD" d="M10.953,0c3.384,0,6.769,0,10.155,0c-1.85,0.7-3.381,1.769-4.767,3.004c-1.244,0-2.487,0-3.73,0
		c0.124-0.54,0.247-1.079,0.376-1.646C10.667,1.314,10.508,1.193,10.953,0z"/>
	<path fill="#D1BDAD" d="M73.535,3.004c-2.557,0-5.112,0-7.667,0c0.069-1,0.138-2.003,0.207-3.004c1.037,0,2.074,0,3.109,0
		c0.349,1.196,1.063,1.607,2.529,1.432C71.766,0.96,71.822,0.48,71.877,0c0.415,0,0.829,0,1.243,0
		C73.258,1.001,73.397,2.003,73.535,3.004z"/>
	<path fill="#D1BDAD" d="M63.588,3.004c-2.971,0-5.941,0-8.912,0c0.26-0.896,0.714-1.438,2.014-1.276
		c1.137,0.141,2.321,0.019,3.484,0.008c1.973-0.018,2.04-0.079,1.961-1.736c0.899,0,1.797,0,2.694,0
		c-0.259,0.691-0.509,1.385-0.783,2.072C63.92,2.391,63.742,2.694,63.588,3.004z"/>
	<path fill="#D1BDAD" d="M8.674,3.004c-1.796,0-3.593,0-5.388,0c0.477-1.792,0.477-1.792,1.965-1.761C6.6,1.272,6.666,1.212,6.601,0
		c1.105,0,2.21,0,3.316,0C9.823,0.538,9.949,1.328,9.586,1.557C8.938,1.967,8.698,2.392,8.674,3.004z"/>
	<path fill="#D1BDAD" d="M-0.021,0c1.174,0,0.888,0,2.063,0C2.037,0.554,1.975,1.114,2.044,1.66
		c0.057,0.456,0.269,0.897,0.413,1.344c-1.218,0,0.216,0-2.479,0"/>
	<path fill="#604D46" d="M40.834,0c-0.104,0.125-1.179,0.876-1.203,1.079c-0.078,0.638-0.062,1.283-0.082,1.925
		c-0.622,0-1.244,0-1.865,0c-0.063-0.307-0.127-0.613-0.203-0.979c-1.362-0.073-2.585,0.062-3.527,0.979c-0.484,0-0.967,0-1.451,0
		c0.042-1.784,0.042-1.774,2.244-1.714c0.953,0.027,1.909,0.004,2.871,0.004c0.107-0.507,0.19-0.9,0.274-1.294"/>
	<path fill="#D1BDAD" d="M86.175,0c1.244,0,2.851,0,4.094,0c0,1.001,0,2.003,0,3.004c-0.483,0-1.331,0-1.814,0
		c0.539-0.598-0.122-0.551-0.469-0.58c-1.817-0.149-1.817-0.139-1.79-1.722C86.2,0.469,86.182,0.234,86.175,0z"/>
	<path fill="#604D46" d="M86.175,0c0.007,0.234,0.025,0.469,0.022,0.702c-0.028,1.583-0.028,1.573,1.79,1.722
		c0.347,0.028,1.007-0.019,0.469,0.58c-1.935,0-3.867,0-5.802,0c0.483-1,0.966-2.003,1.45-3.004C84.794,0,85.485,0,86.175,0z"/>
	<path fill="#604D46" d="M62.137,0c0.078,1.657,0.011,1.718-1.961,1.736c-1.164,0.011-2.347,0.133-3.484-0.008
		c-1.3-0.162-1.754,0.38-2.014,1.276c-0.346,0-0.69,0-1.035,0c0-1,0-2.003,0-3.004c0.414,0,0.829,0,1.243,0
		c0.127,0.852,0.703,1.187,1.693,1.155c1.129-0.036,2.272-0.088,3.391,0.016C61.096,1.274,61.583,0.953,61.516,0
		C61.722,0,61.93,0,62.137,0z"/>
	<path fill="#604D46" d="M16.341,3.004C17.726,1.769,19.258,0.7,21.107,0c1.036,0,2.071,0,3.108,0
		c-1.026,0.505-2.064,0.995-3.076,1.519c-0.922,0.478-1.818,0.99-2.728,1.485C17.722,3.004,17.031,3.004,16.341,3.004z"/>
	<path fill="#604D46" d="M2.457,3.004C2.313,2.557,2.101,2.116,2.044,1.66C1.975,1.114,2.037,0.554,2.042,0c1.52,0,3.04,0,4.56,0
		C6.666,1.212,6.6,1.272,5.251,1.243C3.762,1.212,3.762,1.212,3.286,3.004C3.009,3.004,2.733,3.004,2.457,3.004z"/>
	<path fill="#D1BDAD" d="M53.642,0c0,1.001,0,2.003,0,3.004c-0.898,0-1.796,0-2.694,0c0.069-1,0.138-2.003,0.207-3.004
		C51.983,0,52.812,0,53.642,0z"/>
	<path fill="#D1BDAD" d="M61.516,0c0.067,0.953-0.419,1.274-1.547,1.171c-1.118-0.104-2.261-0.052-3.391-0.016
		C55.587,1.187,55.012,0.852,54.885,0C57.095,0,59.306,0,61.516,0z"/>
	<path fill="#604D46" d="M51.154,0c-0.069,1.001-0.138,2.003-0.207,3.004c-0.622,0-1.243,0-1.865,0c-0.07-1-0.139-2.003-0.208-3.004
		C49.635,0,50.395,0,51.154,0z"/>
	<path fill="#604D46" d="M73.535,3.004c-0.138-1-0.277-2.003-0.415-3.004c1.174,0,2.349,0,3.521,0
		c-1.07,0.83-1.93,1.776-2.278,3.004C74.087,3.004,73.812,3.004,73.535,3.004z"/>
	<path fill="#604D46" d="M8.674,3.004c0.024-0.612,0.265-1.037,0.913-1.447C9.949,1.328,9.823,0.538,9.917,0
		c0.345,0,0.691,0,1.036,0c-0.444,1.193-0.285,1.314,2.034,1.357c-0.129,0.567-0.252,1.107-0.376,1.646c-0.138,0-0.276,0-0.414,0
		c-0.74-1.134-1.815-1.134-2.694,0C9.226,3.004,8.95,3.004,8.674,3.004z"/>
	<path fill="#604D46" d="M63.588,3.004c0.154-0.31,0.332-0.613,0.459-0.932c0.274-0.687,0.524-1.38,0.783-2.072
		c0.415,0,0.829,0,1.243,0c-0.069,1.001-0.138,2.003-0.207,3.004C65.108,3.004,64.349,3.004,63.588,3.004z"/>
	<path fill="#604D46" d="M25.91,3.004c-0.548-1.409,2.536-1.947,4.053-1.755c1.117,0.141,1.406,0.716,0.882,1.755
		C30.086,3.004,26.67,3.004,25.91,3.004z"/>
	<path fill="#604D46" d="M45.766,0c-0.007,0.087-0.012,0.174-0.023,0.261c-0.065,0.482,0.454,1.172-0.56,1.331
		c-0.81,0.126-1.681-0.434-1.903-1.161c-0.041-0.135-0.002-0.287,0-0.431C44.109,0,44.938,0,45.766,0z"/>
	<path fill="#604D46" d="M77.887,3.004c0.089-1.566,0.089-1.567,2.065-1.474c0.233,0.01,0.464,0.038,0.77,0.063
		c-0.224,0.882-1.141,1.03-1.798,1.41C78.577,3.004,78.232,3.004,77.887,3.004z"/>
	<path fill="#604D46" d="M71.877,0c-0.056,0.48-0.111,0.96-0.166,1.432C70.246,1.607,69.532,1.196,69.183,0
		C70.081,0,70.979,0,71.877,0z"/>
	<path fill="#D1BDAD" d="M33.955,3.004c0.942-0.917,2.165-1.052,3.527-0.979c0.076,0.366,0.14,0.672,0.203,0.979
		C36.441,3.004,35.198,3.004,33.955,3.004z"/>
	<path fill="#D1BDAD" d="M109.007,0c1.796,0,3.592,0,5.388,0c0.245,0.327,0.61,0.96,0.713,0.931
		c0.827-0.239,1.604-0.604,2.395-0.931c1.037,0,2.072,0,3.109,0c-0.662,0.478-1.267,1.037-2.001,1.414
		c-1.152,0.596-2.392,1.068-3.594,1.59c-1.658,0-3.316,0-4.974,0c-0.159-0.276-0.236-0.704-0.49-0.803
		C107.865,1.545,107.725,1.067,109.007,0z"/>
	<path fill="#D1BDAD" d="M98.438,0c1.866,0,3.731,0,5.596,0c-0.069,1.001-0.138,2.003-0.206,3.004c-3.523,0-7.046,0-10.569,0
		c-0.019-0.174-0.048-0.349-0.051-0.522c-0.021-1.061,0.257-1.393,1.229-1.49c1.71-0.17,2.222,0.06,2.571,1.053
		c0.078,0.222,0.419,0.513,0.656,0.525c0.318,0.017,0.883-0.158,0.94-0.341C98.833,1.491,99.136,0.704,98.438,0z"/>
	<path fill="#604D46" d="M98.438,0c0.698,0.704,0.395,1.491,0.166,2.229c-0.057,0.183-0.622,0.357-0.94,0.341
		c-0.237-0.012-0.579-0.303-0.656-0.525c-0.35-0.993-0.861-1.224-2.571-1.053c-0.972,0.098-1.25,0.43-1.229,1.49
		c0.003,0.173,0.033,0.348,0.051,0.522c-0.208,0-0.415,0-0.623,0c-0.099-0.651-0.345-1.154-1.271-1.22
		c-0.21-0.015-0.503-0.348-0.556-0.569C90.714,0.824,90.776,0.406,90.771,0C93.328,0,95.884,0,98.438,0z"/>
	<path fill="#D1BDAD" d="M122.684,3.004c-1.45,0-2.901,0-4.352,0c0.111-0.064,0.226-0.125,0.331-0.195
		c1.41-0.936,2.82-1.872,4.229-2.809c1.45,0,2.901,0,4.352,0c0.349,1.47,0.11,1.73-1.572,1.702
		c-0.476-0.007-0.953-0.031-1.429-0.021C122.902,1.706,122.785,1.812,122.684,3.004z"/>
	<path fill="#D1BDAD" d="M130.787,3.004c-2.694,0-3.751,0-6.445,0c0.267-0.178,0.518-0.483,0.805-0.511
		c0.769-0.071,1.555-0.054,2.33-0.013c0.729,0.038,0.993-0.218,0.969-0.817C128.423,1.11,128.47,0.554,128.487,0
		c1.174,0,1.126,0,2.301,0"/>
	<path fill="#604D46" d="M122.892,0c-1.409,0.937-2.818,1.874-4.229,2.809c-0.105,0.07-0.22,0.13-0.331,0.195
		c-1.104,0-2.21,0-3.315,0c1.202-0.522,2.442-0.995,3.594-1.59c0.734-0.377,1.339-0.936,2.001-1.414C121.372,0,122.131,0,122.892,0z
		"/>
	<path fill="#604D46" d="M128.487,0c-0.017,0.554-0.064,1.11-0.042,1.663c0.023,0.599-0.241,0.855-0.969,0.817
		c-0.774-0.041-1.561-0.058-2.33,0.013c-0.287,0.028-0.538,0.333-0.805,0.511c-0.553,0-1.105,0-1.658,0
		c0.101-1.192,0.218-1.298,1.558-1.324c0.476-0.009,0.953,0.014,1.429,0.021c1.682,0.028,1.92-0.231,1.572-1.702
		C127.659,0,128.073,0,128.487,0z"/>
	<path fill="#D1BDAD" d="M90.771,0c0.004,0.406-0.057,0.824,0.038,1.215c0.053,0.221,0.346,0.554,0.556,0.569
		c0.926,0.066,1.172,0.569,1.271,1.22c-1.16,0-1.735,0-2.917,0c0-1,0-2.003,0-3.004C90.265,0,90.225,0,90.771,0z"/>
	<path fill="#D1BDAD" d="M104.863,0c0.76,0,1.52,0,2.28,0c0.138,1.001,0.276,2.003,0.415,3.004c-0.898,0-1.796,0-2.694,0
		C104.863,2.003,104.863,1.001,104.863,0z"/>
	<path fill="#604D46" d="M107.557,3.004c-0.139-1-0.276-2.003-0.415-3.004c0.622,0,1.243,0,1.865,0
		c-1.283,1.067-1.142,1.545,0.546,2.201c0.254,0.099,0.331,0.527,0.49,0.803C109.215,3.004,108.386,3.004,107.557,3.004z"/>
	<path fill="#604D46" d="M104.863,0c0,1.001,0,2.003,0,3.004c-0.345,0-0.69,0-1.035,0c0.068-1,0.137-2.003,0.206-3.004
		C104.311,0,104.587,0,104.863,0z"/>
	<path fill="#604D46" d="M117.503,0c-0.792,0.327-3.798,2.127-4.625,2.366c-0.103,0.029-1.76-2.04-2.005-2.366
		C111.91,0,116.467,0,117.503,0z"/>
	<path fill="#D1BDAD" d="M9.502,3.004c0.878-1.134,1.954-1.134,2.694,0C11.298,3.004,10.4,3.004,9.502,3.004z"/>
	<path fill="#604D46" d="M21.935,3.004c1.193-0.805,1.885-0.805,2.487,0C23.594,3.004,22.765,3.004,21.935,3.004z"/>
</g>
<rect x="-0.021" y="3.004" fill="#CDC2BF" width="130.809" height="10.992"/>
</svg>
