<?xml version="1.0" encoding="utf-8"?>
<!-- Generator: Adobe Illustrator 16.0.0, SVG Export Plug-In . SVG Version: 6.00 Build 0)  -->
<!DOCTYPE svg PUBLIC "-//W3C//DTD SVG 1.1//EN" "http://www.w3.org/Graphics/SVG/1.1/DTD/svg11.dtd">
<svg version="1.1" id="Layer_1" xmlns="http://www.w3.org/2000/svg" xmlns:xlink="http://www.w3.org/1999/xlink" x="0px" y="0px"
	 width="280.958px" height="41.998px" viewBox="0 0 280.958 41.998" enable-background="new 0 0 280.958 41.998"
	 xml:space="preserve">
<g>
	<path fill="#D1BDAD" d="M146.067,34.427c2.523,0,5.046,0,7.57,0c-1.952,1.251-3.878,2.542-5.861,3.744
		c-2.176,1.319-4.403,2.555-6.608,3.827c-9.797,0-19.594,0-29.392,0c0.179-0.991,0.357-1.982,0.588-3.263
		c2.068,0,4.12-0.056,6.168,0.011c4.731,0.155,4.73,0.179,4.822-4.318c1.188,0,2.375,0,3.563,0c-1.124,2.622-0.503,4.07,1.896,4.425
		c3.262,0.483,4.182-0.874,3.002-4.425c2.969,0,5.937,0,8.906,0C142.018,36.456,143.503,36.456,146.067,34.427z"/>
	<path fill="#D1BDAD" d="M238.25,41.998c-3.859,0-7.719,0-11.579,0c-0.524-0.822-1.313-2.419-1.532-2.345
		c-1.775,0.604-3.445,1.522-5.147,2.345c-2.227,0-4.453,0-6.68,0c1.423-1.204,2.724-2.612,4.299-3.564
		c2.478-1.497,5.141-2.687,7.725-4.006c3.563,0,7.126,0,10.688,0c0.341,0.695,0.507,1.776,1.052,2.024
		C240.704,38.104,241.008,39.308,238.25,41.998z"/>
	<path fill="#D1BDAD" d="M108.214,41.998c-2.672,0-5.344,0-8.016,0c0.004-0.362,0.088-0.746,0-1.084
		c-0.478-1.831-2.349-3.242-4.09-2.924c-2.178,0.398-1.062,2.136-1.202,3.354c-0.025,0.217-0.035,0.437-0.051,0.655
		c-2.227,0-4.453,0-6.68,0c-0.148-2.523-0.296-5.047-0.445-7.57c6.829,0,13.657,0,20.485,0c-0.043,1.618-0.008,3.245-0.175,4.85
		c-0.053,0.512-0.643,0.968-0.867,1.282C107.397,40.871,107.806,41.434,108.214,41.998z"/>
	<path fill="#D1BDAD" d="M260.962,41.998c-4.009,0-8.017,0-12.024,0c0.148-2.523,0.297-5.047,0.445-7.57c7.57,0,15.142,0,22.712,0
		c0.037,0.439,0.1,0.879,0.107,1.32c0.046,2.669-0.55,3.509-2.64,3.753c-3.675,0.429-4.773-0.153-5.525-2.653
		c-0.169-0.56-0.901-1.294-1.411-1.324c-0.683-0.04-1.896,0.396-2.019,0.857C260.115,38.239,259.465,40.223,260.962,41.998z"/>
	<path fill="#D1BDAD" d="M25.829,34.427c2.523,0,5.047,0,7.57,0c-0.75,3.095-2.595,5.481-4.898,7.57c-5.344,0-10.688,0-16.032,0
		c1.039-2.523,2.078-5.047,3.117-7.57c2.672,0,5.344,0,8.016,0c-1.416,0.96-3.384,1.331-3.865,3.556
		c0.657,0.065,1.154,0.133,1.652,0.161C25.634,38.375,25.634,38.373,25.829,34.427z"/>
	<path fill="#D1BDAD" d="M169.669,41.998c-7.273,0-14.547,0-21.821,0c3.976-1.764,7.265-4.457,10.243-7.57c2.672,0,5.344,0,8.016,0
		c-0.265,1.359-0.529,2.719-0.808,4.149C170.282,38.687,170.625,38.991,169.669,41.998z"/>
	<path fill="#D1BDAD" d="M35.181,34.427c5.492,0,10.985,0,16.477,0c-0.148,2.523-0.297,5.047-0.445,7.57c-2.227,0-4.453,0-6.68,0
		c-0.75-3.01-2.285-4.047-5.435-3.609c-0.117,1.19-0.236,2.4-0.354,3.609c-0.891,0-1.781,0-2.672,0
		C35.774,39.474,35.478,36.951,35.181,34.427z"/>
	<path fill="#D1BDAD" d="M56.556,34.427c6.383,0,12.767,0,19.149,0c-0.557,2.259-1.534,3.626-4.328,3.217
		c-2.444-0.358-4.988-0.048-7.487-0.021c-4.24,0.046-4.383,0.199-4.217,4.374c-1.93,0-3.86,0-5.789,0
		c0.558-1.742,1.093-3.492,1.685-5.222C55.843,35.974,56.224,35.208,56.556,34.427z"/>
	<path fill="#D1BDAD" d="M174.568,34.427c3.859,0,7.719,0,11.578,0c-1.026,4.517-1.026,4.517-4.226,4.438
		c-2.895-0.072-3.036,0.081-2.9,3.133c-2.375,0-4.75,0-7.125,0c0.202-1.354-0.069-3.346,0.709-3.923
		C173.998,37.041,174.516,35.971,174.568,34.427z"/>
	<path fill="#604D46" d="M260.962,41.998c-1.497-1.775-0.847-3.759-0.354-5.617c0.122-0.461,1.336-0.897,2.019-0.857
		c0.51,0.03,1.242,0.764,1.411,1.324c0.752,2.5,1.851,3.082,5.525,2.653c2.09-0.244,2.686-1.084,2.64-3.753
		c-0.008-0.44-0.07-0.88-0.107-1.32c0.445,0,0.891,0,1.336,0c0.213,1.639,0.74,2.909,2.73,3.075
		c0.454,0.038,1.082,0.877,1.197,1.436c0.203,0.984,0.071,2.036,0.08,3.06C271.946,41.998,266.453,41.998,260.962,41.998z"/>
	<path fill="#D1BDAD" d="M208.858,34.427c3.117,0,6.234,0,9.352,0c-0.237,0.163-0.484,0.314-0.711,0.491
		c-3.03,2.358-6.058,4.719-9.086,7.08c-3.117,0-6.234,0-9.352,0c-0.75-3.705-0.235-4.359,3.377-4.289
		c1.023,0.02,2.049,0.078,3.072,0.055C208.39,37.699,208.642,37.434,208.858,34.427z"/>
	<path fill="#D1BDAD" d="M196.389,41.998c-2.523,0-5.047,0-7.57,0c0.012-1.396,0.145-2.805-0.004-4.184
		c-0.124-1.148-0.579-2.259-0.887-3.387c5.789,0,11.578,0,17.368,0c-0.574,0.45-1.112,1.22-1.728,1.287
		c-1.652,0.18-3.343,0.138-5.009,0.035c-1.564-0.097-2.133,0.549-2.081,2.059C196.525,39.202,196.425,40.601,196.389,41.998z"/>
	<path fill="#604D46" d="M108.214,41.998c-0.408-0.563-0.817-1.127-1.042-1.438c0.225-0.314,0.814-0.77,0.867-1.282
		c0.167-1.605,0.132-3.232,0.175-4.85c1.336,0,2.672,0,4.008,0c0.137,0.772,0.274,1.546,0.437,2.467
		c2.925,0.184,5.554-0.156,7.578-2.467c1.04,0,2.079,0,3.118,0c-0.091,4.498-0.09,4.474-4.822,4.318
		c-2.048-0.067-4.1-0.011-6.168-0.011c-0.231,1.281-0.409,2.272-0.588,3.263C110.589,41.998,109.402,41.998,108.214,41.998z"/>
	<path fill="#D1BDAD" d="M8.016,41.998c-2.672,0-5.344,0-8.016,0c0-2.523,0-5.047,0-7.57c1.039,0,2.078,0,3.117,0
		c-1.159,1.508,0.261,1.392,1.009,1.463c3.903,0.371,3.903,0.345,3.845,4.34C7.962,40.819,8,41.409,8.016,41.998z"/>
	<path fill="#604D46" d="M8.016,41.998C8,41.409,7.962,40.819,7.971,40.23c0.058-3.995,0.059-3.969-3.845-4.34
		c-0.748-0.071-2.167,0.044-1.009-1.463c4.156,0,8.313,0,12.469,0c-1.039,2.523-2.079,5.047-3.117,7.57
		C10.985,41.998,9.5,41.998,8.016,41.998z"/>
	<path fill="#604D46" d="M59.674,41.998c-0.167-4.175-0.023-4.328,4.217-4.374c2.499-0.027,5.043-0.337,7.487,0.021
		c2.793,0.409,3.771-0.958,4.328-3.217c0.742,0,1.484,0,2.227,0c0,2.523,0,5.047,0,7.57c-0.891,0-1.781,0-2.672,0
		c-0.274-2.144-1.512-2.989-3.637-2.909c-2.429,0.091-4.885,0.219-7.289-0.04c-2.424-0.261-3.469,0.55-3.325,2.949
		C60.564,41.998,60.119,41.998,59.674,41.998z"/>
	<path fill="#604D46" d="M158.091,34.427c-2.978,3.113-6.267,5.807-10.243,7.57c-2.227,0-4.453,0-6.68,0
		c2.205-1.272,4.432-2.508,6.608-3.827c1.982-1.201,3.909-2.492,5.861-3.744C155.122,34.427,156.607,34.427,158.091,34.427z"/>
	<path fill="#604D46" d="M208.413,41.998c3.028-2.36,6.056-4.722,9.086-7.08c0.227-0.176,0.474-0.328,0.711-0.491
		c2.375,0,4.75,0,7.125,0c-2.584,1.319-5.247,2.509-7.725,4.006c-1.575,0.952-2.876,2.361-4.299,3.564
		C211.679,41.998,210.046,41.998,208.413,41.998z"/>
	<path fill="#604D46" d="M187.928,34.427c0.308,1.127,0.763,2.239,0.887,3.387c0.148,1.378,0.016,2.788,0.004,4.184
		c-3.266,0-6.531,0-9.797,0c-0.136-3.052,0.005-3.205,2.9-3.133c3.199,0.08,3.199,0.08,4.226-4.438
		C186.74,34.427,187.334,34.427,187.928,34.427z"/>
	<path fill="#D1BDAD" d="M77.932,41.998c0-2.523,0-5.047,0-7.57c1.93,0,3.86,0,5.79,0c-0.148,2.523-0.297,5.047-0.446,7.57
		C81.495,41.998,79.713,41.998,77.932,41.998z"/>
	<path fill="#604D46" d="M196.389,41.998c0.036-1.397,0.137-2.796,0.09-4.189c-0.052-1.51,0.517-2.155,2.081-2.059
		c1.666,0.103,3.356,0.145,5.009-0.035c0.615-0.067,1.153-0.837,1.728-1.287c1.188,0,2.375,0,3.563,0
		c-0.217,3.007-0.469,3.272-3.348,3.336c-1.023,0.023-2.049-0.035-3.072-0.055c-3.612-0.07-4.127,0.584-3.377,4.289
		C198.17,41.998,197.279,41.998,196.389,41.998z"/>
	<path fill="#D1BDAD" d="M61.01,41.998c-0.145-2.399,0.901-3.209,3.325-2.949c2.404,0.259,4.86,0.131,7.289,0.04
		c2.125-0.08,3.363,0.765,3.637,2.909C70.51,41.998,65.76,41.998,61.01,41.998z"/>
	<path fill="#D1BDAD" d="M277.438,41.998c-0.009-1.023,0.123-2.076-0.08-3.06c-0.115-0.559-0.743-1.398-1.197-1.436
		c-1.99-0.166-2.518-1.436-2.73-3.075c2.493,0,4.987,0,7.526,0c0,2.523,0,5.047,0.001,7.57
		C279.785,41.998,278.612,41.998,277.438,41.998z"/>
	<path fill="#D1BDAD" d="M247.156,41.998c-1.633,0-3.266,0-4.898,0c-0.297-2.523-0.594-5.047-0.891-7.57c1.93,0,3.859,0,5.789,0
		C247.156,36.951,247.156,39.474,247.156,41.998z"/>
	<path fill="#604D46" d="M83.276,41.998c0.148-2.523,0.297-5.047,0.446-7.57c1.336,0,2.672,0,4.007,0
		c0.149,2.523,0.297,5.047,0.445,7.57C86.542,41.998,84.909,41.998,83.276,41.998z"/>
	<path fill="#604D46" d="M35.181,34.427c0.297,2.523,0.594,5.047,0.891,7.57c-2.523,0-5.047,0-7.57,0
		c2.303-2.089,4.148-4.476,4.898-7.57C33.993,34.427,34.587,34.427,35.181,34.427z"/>
	<path fill="#604D46" d="M174.568,34.427c-0.052,1.544-0.571,2.613-1.963,3.647c-0.779,0.578-0.508,2.569-0.709,3.923
		c-0.742,0-1.484,0-2.227,0c0.956-3.006,0.613-3.311-4.371-3.421c0.279-1.43,0.543-2.79,0.808-4.149c0.297,0,0.594,0,0.891,0
		c1.593,2.857,3.901,2.857,5.789,0C173.38,34.427,173.975,34.427,174.568,34.427z"/>
	<path fill="#604D46" d="M241.367,34.427c0.297,2.523,0.594,5.047,0.891,7.57c-1.336,0-2.672,0-4.008,0
		c2.758-2.689,2.454-3.893-1.175-5.546c-0.545-0.248-0.711-1.329-1.052-2.024C237.805,34.427,239.586,34.427,241.367,34.427z"/>
	<path fill="#604D46" d="M56.556,34.427c-0.332,0.781-0.713,1.546-0.987,2.348c-0.591,1.73-1.126,3.48-1.685,5.222
		c-0.891,0-1.782,0-2.672,0c0.148-2.523,0.297-5.047,0.445-7.57C53.291,34.427,54.923,34.427,56.556,34.427z"/>
	<path fill="#604D46" d="M131.817,34.427c1.18,3.551,0.259,4.908-3.002,4.425c-2.4-0.355-3.021-1.803-1.896-4.425
		C128.551,34.427,130.184,34.427,131.817,34.427z"/>
	<path fill="#604D46" d="M94.854,41.998c0.017-0.219,0.026-0.438,0.051-0.655c0.141-1.217-0.976-2.956,1.202-3.354
		c1.742-0.318,3.612,1.094,4.09,2.924c0.088,0.338,0.004,0.722,0,1.084C98.417,41.998,96.636,41.998,94.854,41.998z"/>
	<path fill="#604D46" d="M25.829,34.427c-0.195,3.945-0.195,3.947-4.439,3.716c-0.499-0.027-0.995-0.096-1.652-0.161
		c0.481-2.225,2.449-2.596,3.865-3.556C24.345,34.427,25.086,34.427,25.829,34.427z"/>
	<path fill="#604D46" d="M38.743,41.998c0.119-1.209,0.238-2.419,0.354-3.609c3.15-0.438,4.686,0.599,5.435,3.609
		C42.603,41.998,40.673,41.998,38.743,41.998z"/>
	<path fill="#D1BDAD" d="M120.238,34.427c-2.024,2.311-4.653,2.651-7.578,2.467c-0.163-0.921-0.3-1.695-0.437-2.467
		C114.895,34.427,117.566,34.427,120.238,34.427z"/>
	<path fill="#604D46" d="M247.156,41.998c0-2.523,0-5.047,0-7.57c0.742,0,1.484,0,2.227,0c-0.148,2.523-0.297,5.047-0.445,7.57
		C248.344,41.998,247.75,41.998,247.156,41.998z"/>
	<path fill="#604D46" d="M219.991,41.998c1.702-0.822,3.372-1.74,5.147-2.345c0.22-0.074,1.008,1.522,1.532,2.345
		C224.444,41.998,222.218,41.998,219.991,41.998z"/>
	<path fill="#D1BDAD" d="M172.787,34.427c-1.888,2.857-4.196,2.857-5.789,0C168.927,34.427,170.857,34.427,172.787,34.427z"/>
	<path fill="#604D46" d="M146.067,34.427c-2.564,2.028-4.049,2.028-5.344,0C142.504,34.427,144.286,34.427,146.067,34.427z"/>
</g>
<rect fill="#CDC2BF" width="281" height="34.433"/>
</svg>
