<?xml version="1.0" encoding="utf-8"?>
<!-- Generator: Adobe Illustrator 16.0.0, SVG Export Plug-In . SVG Version: 6.00 Build 0)  -->
<!DOCTYPE svg PUBLIC "-//W3C//DTD SVG 1.1//EN" "http://www.w3.org/Graphics/SVG/1.1/DTD/svg11.dtd">
<svg version="1.1" id="Layer_1" xmlns="http://www.w3.org/2000/svg" xmlns:xlink="http://www.w3.org/1999/xlink" x="0px" y="0px"
	 width="87px" height="16.998px" viewBox="0 0 87 16.998" enable-background="new 0 0 87 16.998" xml:space="preserve">
<g>
	<path fill="#D1BDAD" d="M45.232,15c0.782,0,1.563,0,2.345,0c-0.605,0.33-1.202,0.67-1.816,0.987
		c-0.674,0.349-1.364,0.674-2.048,1.01c-3.035,0-6.07,0-9.105,0c0.055-0.262,0.11-0.523,0.182-0.861
		c0.641,0,1.276-0.015,1.911,0.003c1.466,0.041,1.465,0.047,1.494-1.14c0.368,0,0.736,0,1.104,0
		c-0.349,0.691-0.156,1.073,0.587,1.167c1.01,0.127,1.295-0.23,0.93-1.167c0.92,0,1.839,0,2.759,0
		C43.977,15.535,44.438,15.535,45.232,15z"/>
	<path fill="#D1BDAD" d="M73.791,16.998c-1.196,0-2.392,0-3.587,0c-0.163-0.217-0.406-0.639-0.475-0.619
		c-0.55,0.16-1.067,0.401-1.595,0.619c-0.69,0-1.379,0-2.069,0c0.44-0.318,0.843-0.689,1.332-0.94
		c0.767-0.396,1.592-0.709,2.393-1.057c1.104,0,2.208,0,3.311,0c0.106,0.184,0.157,0.468,0.326,0.534
		C74.551,15.97,74.645,16.288,73.791,16.998z"/>
	<path fill="#D1BDAD" d="M33.504,16.998c-0.828,0-1.656,0-2.483,0c0.001-0.096,0.027-0.197,0-0.287
		c-0.148-0.483-0.728-0.855-1.267-0.771c-0.675,0.105-0.329,0.564-0.373,0.885c-0.008,0.057-0.011,0.115-0.016,0.173
		c-0.69,0-1.38,0-2.07,0c-0.046-0.666-0.092-1.332-0.138-1.998c2.116,0,4.231,0,6.347,0c-0.013,0.427-0.002,0.856-0.054,1.28
		c-0.016,0.135-0.199,0.255-0.269,0.338C33.251,16.7,33.378,16.849,33.504,16.998z"/>
	<path fill="#D1BDAD" d="M80.828,16.998c-1.242,0-2.484,0-3.726,0c0.046-0.666,0.092-1.332,0.138-1.998c2.346,0,4.691,0,7.037,0
		c0.012,0.116,0.031,0.232,0.034,0.348c0.014,0.705-0.171,0.926-0.818,0.991c-1.138,0.114-1.479-0.04-1.712-0.7
		c-0.052-0.148-0.279-0.342-0.437-0.35c-0.212-0.011-0.588,0.105-0.626,0.226C80.565,16.005,80.363,16.529,80.828,16.998z"/>
	<path fill="#D1BDAD" d="M7.98,15c0.782,0,1.564,0,2.346,0c-0.232,0.816-0.804,1.446-1.518,1.998c-1.656,0-3.312,0-4.967,0
		C4.164,16.332,4.485,15.666,4.807,15c0.828,0,1.656,0,2.483,0c-0.438,0.253-1.048,0.351-1.197,0.938
		c0.204,0.017,0.357,0.035,0.512,0.042C7.92,16.042,7.92,16.041,7.98,15z"/>
	<path fill="#D1BDAD" d="M52.543,16.998c-2.253,0-4.506,0-6.76,0c1.231-0.465,1.794-1.335,3.173-1.998c0.828,0,1.656,0,2.483,0
		c-0.082,0.359-0.164,0.717-0.25,1.095C52.734,16.124,52.839,16.204,52.543,16.998z"/>
	<path fill="#D1BDAD" d="M10.878,15c1.702,0,3.403,0,5.104,0c-0.045,0.666-0.092,1.332-0.138,1.998c-0.69,0-1.38,0-2.069,0
		c-0.232-0.795-0.708-1.068-1.684-0.953c-0.036,0.314-0.073,0.633-0.11,0.953c-0.276,0-0.552,0-0.828,0
		C11.062,16.332,10.97,15.666,10.878,15z"/>
	<path fill="#D1BDAD" d="M17.5,15c1.978,0,3.956,0,5.933,0c-0.173,0.596-0.476,0.957-1.341,0.849
		c-0.757-0.094-1.545-0.013-2.32-0.005c-1.313,0.012-1.358,0.052-1.306,1.154c-0.598,0-1.196,0-1.794,0
		c0.173-0.459,0.339-0.921,0.522-1.378C17.279,15.408,17.397,15.207,17.5,15z"/>
	<path fill="#D1BDAD" d="M54.061,15c1.196,0,2.392,0,3.587,0c-0.317,1.191-0.317,1.191-1.309,1.171
		c-0.898-0.019-0.941,0.021-0.899,0.827c-0.736,0-1.472,0-2.208,0c0.063-0.357-0.021-0.883,0.22-1.035
		C53.885,15.689,54.045,15.407,54.061,15z"/>
	<path fill="#604D46" d="M80.828,16.998c-0.464-0.468-0.263-0.992-0.11-1.482c0.038-0.121,0.414-0.237,0.626-0.226
		c0.158,0.008,0.385,0.202,0.437,0.35c0.233,0.66,0.574,0.813,1.712,0.7c0.647-0.064,0.832-0.286,0.818-0.991
		c-0.002-0.116-0.022-0.232-0.034-0.348c0.138,0,0.276,0,0.414,0c0.066,0.433,0.229,0.767,0.846,0.812
		c0.14,0.009,0.335,0.231,0.371,0.378c0.063,0.26,0.022,0.538,0.025,0.808C84.23,16.998,82.528,16.998,80.828,16.998z"/>
	<path fill="#D1BDAD" d="M64.685,15c0.966,0,1.932,0,2.897,0c-0.074,0.043-0.15,0.083-0.22,0.129
		c-0.939,0.622-1.877,1.245-2.815,1.868c-0.966,0-1.932,0-2.897,0c-0.232-0.978-0.073-1.15,1.046-1.132
		c0.317,0.005,0.635,0.021,0.952,0.015C64.54,15.863,64.618,15.793,64.685,15z"/>
	<path fill="#D1BDAD" d="M60.822,16.998c-0.782,0-1.563,0-2.345,0c0.003-0.369,0.044-0.74-0.001-1.104
		C58.437,15.59,58.296,15.297,58.2,15c1.794,0,3.587,0,5.381,0c-0.178,0.119-0.345,0.321-0.536,0.34
		c-0.512,0.047-1.035,0.036-1.551,0.009c-0.485-0.026-0.661,0.145-0.645,0.543C60.864,16.26,60.833,16.629,60.822,16.998z"/>
	<path fill="#604D46" d="M33.504,16.998c-0.126-0.149-0.253-0.297-0.323-0.38c0.07-0.083,0.252-0.203,0.269-0.338
		c0.052-0.424,0.041-0.853,0.054-1.28c0.414,0,0.828,0,1.242,0c0.042,0.204,0.085,0.408,0.136,0.651
		C35.788,15.7,36.603,15.61,37.229,15c0.322,0,0.644,0,0.966,0c-0.028,1.187-0.028,1.18-1.494,1.14
		c-0.635-0.018-1.271-0.003-1.911-0.003c-0.072,0.338-0.127,0.599-0.182,0.861C34.24,16.998,33.873,16.998,33.504,16.998z"/>
	<path fill="#D1BDAD" d="M2.462,16.998c-0.828,0-1.656,0-2.483,0c0-0.666,0-1.332,0-1.998c0.322,0,0.644,0,0.966,0
		c-0.359,0.398,0.081,0.367,0.313,0.386c1.209,0.098,1.209,0.092,1.191,1.145C2.445,16.686,2.457,16.842,2.462,16.998z"/>
	<path fill="#604D46" d="M2.462,16.998c-0.005-0.156-0.017-0.312-0.014-0.467c0.018-1.053,0.019-1.047-1.191-1.145
		C1.025,15.367,0.585,15.398,0.944,15c1.288,0,2.575,0,3.863,0c-0.322,0.666-0.644,1.332-0.965,1.998
		C3.382,16.998,2.922,16.998,2.462,16.998z"/>
	<path fill="#604D46" d="M18.466,16.998c-0.052-1.102-0.007-1.142,1.306-1.154c0.774-0.007,1.563-0.089,2.32,0.005
		c0.865,0.108,1.168-0.253,1.341-0.849c0.23,0,0.459,0,0.689,0c0,0.666,0,1.332,0,1.998c-0.276,0-0.552,0-0.828,0
		c-0.085-0.566-0.468-0.789-1.127-0.768c-0.752,0.024-1.513,0.058-2.258-0.011c-0.751-0.069-1.075,0.145-1.03,0.778
		C18.742,16.998,18.604,16.998,18.466,16.998z"/>
	<path fill="#604D46" d="M48.957,15c-0.922,0.821-1.939,0.999-1.439,1.998c-0.69,0-3.113,0-3.804,0
		c0.684-0.336,1.374-0.662,2.048-1.01c0.614-0.317,1.21-0.658,1.816-0.987C48.037,15,48.497,15,48.957,15z"/>
	<path fill="#604D46" d="M64.547,16.998c0.938-0.623,1.876-1.246,2.815-1.868c0.07-0.046,0.146-0.086,0.22-0.129
		c0.736,0,1.472,0,2.208,0c-0.801,0.348-1.626,0.662-2.393,1.057c-0.489,0.251-0.892,0.622-1.332,0.94
		C65.559,16.998,65.053,16.998,64.547,16.998z"/>
	<path fill="#604D46" d="M58.2,15c0.096,0.297,0.237,0.59,0.275,0.894c0.046,0.364,0.005,0.735,0.001,1.104
		c-1.012,0-2.023,0-3.036,0c-0.042-0.806,0.001-0.846,0.899-0.827c0.991,0.021,0.991,0.021,1.309-1.171C57.833,15,58.016,15,58.2,15
		z"/>
	<path fill="#D1BDAD" d="M24.123,16.998c0-0.666,0-1.332,0-1.998c0.598,0,1.196,0,1.794,0c-0.046,0.666-0.092,1.332-0.138,1.998
		C25.227,16.998,24.675,16.998,24.123,16.998z"/>
	<path fill="#604D46" d="M60.822,16.998c0.011-0.369,0.042-0.738,0.028-1.105c-0.016-0.398,0.16-0.569,0.645-0.543
		c0.516,0.026,1.04,0.038,1.551-0.009c0.191-0.019,0.358-0.221,0.536-0.34c0.368,0,0.736,0,1.104,0
		c-0.067,0.793-0.145,0.863-1.037,0.88c-0.317,0.006-0.635-0.009-0.952-0.015c-1.12-0.019-1.278,0.154-1.046,1.132
		C61.374,16.998,61.098,16.998,60.822,16.998z"/>
	<path fill="#D1BDAD" d="M18.88,16.998c-0.044-0.633,0.279-0.847,1.03-0.778c0.745,0.069,1.505,0.035,2.258,0.011
		c0.659-0.021,1.042,0.202,1.127,0.768C21.823,16.998,20.352,16.998,18.88,16.998z"/>
	<path fill="#D1BDAD" d="M85.932,16.998c-0.003-0.27,0.038-0.548-0.025-0.808c-0.036-0.147-0.23-0.369-0.371-0.378
		c-0.617-0.044-0.78-0.379-0.846-0.812c0.772,0,1.545,0,2.332,0c0,0.666,0,1.332,0,1.998C86.659,16.998,86.296,16.998,85.932,16.998
		z"/>
	<path fill="#D1BDAD" d="M76.55,16.998c-0.506,0-1.012,0-1.518,0c-0.092-0.666-0.184-1.332-0.276-1.998c0.598,0,1.196,0,1.794,0
		C76.55,15.666,76.55,16.332,76.55,16.998z"/>
	<path fill="#604D46" d="M25.778,16.998c0.046-0.666,0.092-1.332,0.138-1.998c0.414,0,0.828,0,1.241,0
		c0.046,0.666,0.092,1.332,0.138,1.998C26.79,16.998,26.284,16.998,25.778,16.998z"/>
	<path fill="#604D46" d="M10.878,15c0.092,0.666,0.184,1.332,0.276,1.998c-0.782,0-1.563,0-2.345,0
		c0.713-0.551,1.285-1.181,1.518-1.998C10.51,15,10.694,15,10.878,15z"/>
	<path fill="#604D46" d="M54.061,15c-0.016,0.407-0.176,0.689-0.608,0.962c-0.241,0.152-0.157,0.678-0.22,1.035
		c-0.23,0-0.46,0-0.69,0c0.296-0.793,0.19-0.874-1.354-0.903c0.086-0.377,0.168-0.736,0.25-1.095c0.092,0,0.184,0,0.276,0
		c0.493,0.754,1.208,0.754,1.793,0C53.693,15,53.877,15,54.061,15z"/>
	<path fill="#604D46" d="M74.756,15c0.092,0.666,0.184,1.332,0.276,1.998c-0.414,0-0.828,0-1.242,0
		c0.854-0.709,0.76-1.028-0.364-1.463c-0.169-0.066-0.22-0.351-0.326-0.534C73.653,15,74.205,15,74.756,15z"/>
	<path fill="#604D46" d="M17.5,15c-0.103,0.207-0.221,0.408-0.306,0.62c-0.183,0.457-0.349,0.918-0.522,1.378
		c-0.276,0-0.552,0-0.828,0c0.046-0.666,0.092-1.332,0.138-1.998C16.489,15,16.994,15,17.5,15z"/>
	<path fill="#604D46" d="M40.817,15c0.365,0.937,0.08,1.294-0.93,1.167c-0.744-0.094-0.936-0.476-0.587-1.167
		C39.805,15,40.311,15,40.817,15z"/>
	<path fill="#604D46" d="M29.366,16.998c0.005-0.058,0.008-0.116,0.016-0.173c0.043-0.321-0.302-0.78,0.373-0.885
		c0.54-0.084,1.119,0.289,1.267,0.771c0.027,0.09,0.001,0.19,0,0.287C30.469,16.998,29.917,16.998,29.366,16.998z"/>
	<path fill="#604D46" d="M7.98,15c-0.06,1.041-0.06,1.042-1.375,0.98c-0.155-0.007-0.309-0.025-0.512-0.042
		C6.242,15.351,6.852,15.253,7.291,15C7.521,15,7.75,15,7.98,15z"/>
	<path fill="#604D46" d="M11.981,16.998c0.037-0.319,0.074-0.639,0.11-0.953c0.976-0.116,1.452,0.158,1.684,0.953
		C13.177,16.998,12.58,16.998,11.981,16.998z"/>
	<path fill="#D1BDAD" d="M37.229,15c-0.627,0.61-1.441,0.7-2.348,0.651c-0.051-0.243-0.093-0.447-0.136-0.651
		C35.574,15,36.402,15,37.229,15z"/>
	<path fill="#604D46" d="M76.55,16.998c0-0.666,0-1.332,0-1.998c0.229,0,0.459,0,0.689,0c-0.046,0.666-0.092,1.332-0.138,1.998
		C76.918,16.998,76.734,16.998,76.55,16.998z"/>
	<path fill="#604D46" d="M68.134,16.998c0.527-0.217,1.044-0.459,1.595-0.619c0.068-0.02,0.312,0.401,0.475,0.619
		C69.514,16.998,68.824,16.998,68.134,16.998z"/>
	<path fill="#D1BDAD" d="M53.509,15c-0.585,0.754-1.3,0.754-1.793,0C52.314,15,52.912,15,53.509,15z"/>
	<path fill="#604D46" d="M45.232,15c-0.794,0.535-1.255,0.535-1.656,0C44.127,15,44.68,15,45.232,15z"/>
</g>
<g>
	<path fill="#D1BDAD" d="M14.622,2.003c-0.783,0-1.565,0-2.349,0c0.606-0.331,1.204-0.672,1.819-0.991
		C14.766,0.664,15.458,0.337,16.143,0c3.04,0,6.08,0,9.121,0c-0.056,0.263-0.111,0.525-0.183,0.863
		c-0.642,0-1.279,0.015-1.915-0.003c-1.468-0.041-1.468-0.047-1.496,1.143c-0.369,0-0.737,0-1.106,0
		c0.349-0.693,0.157-1.077-0.588-1.171c-1.012-0.128-1.297,0.231-0.932,1.171c-0.921,0-1.842,0-2.764,0
		C15.878,1.467,15.417,1.467,14.622,2.003z"/>
	<path fill="#D1BDAD" d="M26.369,0c0.829,0,1.659,0,2.488,0c-0.001,0.096-0.027,0.197,0,0.288c0.148,0.484,0.729,0.858,1.269,0.774
		c0.676-0.106,0.33-0.566,0.374-0.888C30.507,0.116,30.51,0.058,30.515,0c0.691,0,1.382,0,2.073,0
		c0.046,0.667,0.092,1.336,0.138,2.003c-2.119,0-4.238,0-6.357,0c0.013-0.428,0.002-0.858,0.055-1.284
		c0.016-0.135,0.199-0.255,0.269-0.339C26.622,0.298,26.496,0.149,26.369,0z"/>
	<path fill="#D1BDAD" d="M51.936,2.003c-0.783,0-1.566,0-2.35,0c0.232-0.819,0.806-1.45,1.52-2.003c1.659,0,3.317,0,4.976,0
		c-0.322,0.667-0.645,1.336-0.967,2.003c-0.83,0-1.658,0-2.487,0c0.438-0.254,1.05-0.352,1.199-0.94
		c-0.204-0.017-0.358-0.036-0.514-0.042C51.996,0.958,51.996,0.959,51.936,2.003z"/>
	<path fill="#D1BDAD" d="M7.297,0c2.257,0,4.514,0,6.772,0c-1.233,0.467-2.255,1.18-3.179,2.003c-0.83,0-1.659,0-2.488,0
		c0.083-0.36,0.165-0.72,0.251-1.098C7.107,0.876,7.001,0.796,7.297,0z"/>
	<path fill="#D1BDAD" d="M49.034,2.003c-1.705,0-3.409,0-5.113,0C43.966,1.336,44.012,0.667,44.058,0c0.691,0,1.383,0,2.073,0
		c0.232,0.797,0.709,1.072,1.687,0.955C47.854,0.64,47.891,0.32,47.928,0c0.276,0,0.553,0,0.829,0
		C48.849,0.667,48.942,1.336,49.034,2.003z"/>
	<path fill="#D1BDAD" d="M42.4,2.003c-1.981,0-3.962,0-5.943,0c0.173-0.598,0.477-0.959,1.343-0.851
		c0.758,0.094,1.548,0.013,2.324,0.005c1.315-0.012,1.36-0.053,1.308-1.158c0.6,0,1.198,0,1.797,0
		c-0.173,0.461-0.339,0.924-0.522,1.382C42.622,1.595,42.503,1.796,42.4,2.003z"/>
	<path fill="#D1BDAD" d="M5.777,2.003c-1.198,0-2.396,0-3.593,0c0.318-1.195,0.318-1.195,1.311-1.174
		C4.394,0.848,4.438,0.808,4.395,0c0.737,0,1.474,0,2.211,0c-0.063,0.358,0.021,0.885-0.22,1.039
		C5.954,1.312,5.793,1.595,5.777,2.003z"/>
	<path fill="#D1BDAD" d="M-0.021,0c0.783,0,0.592,0,1.375,0C1.351,0.37,1.31,0.743,1.356,1.107c0.038,0.304,0.179,0.598,0.275,0.896
		c-0.813,0,0.144,0-1.653,0"/>
	<path fill="#604D46" d="M27.226,0c-0.07,0.083-0.786,0.584-0.802,0.72c-0.052,0.425-0.042,0.855-0.055,1.284
		c-0.415,0-0.83,0-1.244,0c-0.042-0.205-0.085-0.409-0.136-0.653c-0.908-0.049-1.724,0.042-2.352,0.653c-0.323,0-0.645,0-0.967,0
		c0.028-1.19,0.028-1.184,1.496-1.143c0.636,0.018,1.273,0.003,1.915,0.003C25.152,0.525,25.208,0.263,25.263,0"/>
	<path fill="#D1BDAD" d="M57.463,0c0.829,0,1.901,0,2.73,0c0,0.667,0,1.336,0,2.003c-0.322,0-0.888,0-1.21,0
		c0.359-0.399-0.081-0.368-0.313-0.387c-1.212-0.099-1.212-0.092-1.193-1.148C57.48,0.313,57.468,0.156,57.463,0z"/>
	<path fill="#604D46" d="M57.463,0c0.005,0.156,0.017,0.313,0.015,0.468c-0.019,1.056-0.019,1.049,1.193,1.148
		c0.231,0.019,0.672-0.012,0.313,0.387c-1.29,0-2.579,0-3.869,0C55.437,1.336,55.759,0.667,56.082,0C56.542,0,57.003,0,57.463,0z"/>
	<path fill="#604D46" d="M41.432,0c0.052,1.105,0.007,1.146-1.308,1.158c-0.776,0.007-1.565,0.089-2.324-0.005
		c-0.867-0.108-1.17,0.253-1.343,0.851c-0.23,0-0.46,0-0.69,0c0-0.667,0-1.336,0-2.003c0.276,0,0.553,0,0.829,0
		c0.085,0.568,0.469,0.792,1.129,0.77c0.753-0.024,1.516-0.059,2.261,0.011C40.738,0.85,41.063,0.635,41.018,0
		C41.156,0,41.294,0,41.432,0z"/>
	<path fill="#604D46" d="M10.891,2.003C11.814,1.18,12.836,0.467,14.069,0c0.691,0,1.381,0,2.073,0
		c-0.685,0.337-1.376,0.664-2.051,1.013c-0.615,0.318-1.212,0.66-1.819,0.991C11.812,2.003,11.351,2.003,10.891,2.003z"/>
	<path fill="#604D46" d="M1.631,2.003C1.535,1.705,1.394,1.411,1.356,1.107C1.31,0.743,1.351,0.37,1.354,0c1.013,0,2.027,0,3.041,0
		c0.043,0.808-0.001,0.848-0.9,0.829C2.502,0.809,2.502,0.809,2.184,2.003C2,2.003,1.815,2.003,1.631,2.003z"/>
	<path fill="#D1BDAD" d="M35.767,0c0,0.667,0,1.336,0,2.003c-0.599,0-1.198,0-1.797,0C34.016,1.336,34.062,0.667,34.108,0
		C34.661,0,35.213,0,35.767,0z"/>
	<path fill="#D1BDAD" d="M41.018,0c0.044,0.635-0.28,0.85-1.032,0.781c-0.746-0.069-1.508-0.035-2.261-0.011
		c-0.66,0.021-1.044-0.202-1.129-0.77C38.07,0,39.544,0,41.018,0z"/>
	<path fill="#604D46" d="M34.108,0c-0.046,0.667-0.092,1.336-0.138,2.003c-0.415,0-0.829,0-1.244,0
		C32.68,1.336,32.634,0.667,32.588,0C33.095,0,33.601,0,34.108,0z"/>
	<path fill="#604D46" d="M49.034,2.003C48.942,1.336,48.849,0.667,48.757,0c0.783,0,1.566,0,2.349,0
		c-0.714,0.553-1.287,1.185-1.52,2.003C49.402,2.003,49.218,2.003,49.034,2.003z"/>
	<path fill="#604D46" d="M5.777,2.003c0.016-0.408,0.177-0.691,0.609-0.965C6.628,0.885,6.544,0.358,6.606,0c0.23,0,0.461,0,0.691,0
		c-0.296,0.796-0.19,0.876,1.356,0.905C8.567,1.284,8.485,1.644,8.403,2.003c-0.092,0-0.184,0-0.276,0
		c-0.494-0.756-1.21-0.756-1.796,0C6.146,2.003,5.961,2.003,5.777,2.003z"/>
	<path fill="#604D46" d="M42.4,2.003c0.103-0.207,0.221-0.409,0.306-0.622C42.89,0.924,43.056,0.461,43.229,0
		c0.276,0,0.553,0,0.829,0c-0.046,0.667-0.092,1.336-0.138,2.003C43.414,2.003,42.907,2.003,42.4,2.003z"/>
	<path fill="#604D46" d="M17.272,2.003c-0.366-0.939,1.691-1.299,2.703-1.171c0.745,0.094,0.938,0.478,0.588,1.171
		C20.058,2.003,17.779,2.003,17.272,2.003z"/>
	<path fill="#604D46" d="M30.515,0c-0.005,0.058-0.008,0.116-0.016,0.174c-0.044,0.322,0.303,0.782-0.374,0.888
		c-0.541,0.084-1.121-0.29-1.269-0.774c-0.027-0.09-0.001-0.191,0-0.288C29.409,0,29.962,0,30.515,0z"/>
	<path fill="#604D46" d="M51.936,2.003c0.06-1.044,0.06-1.045,1.377-0.983c0.155,0.007,0.31,0.025,0.514,0.042
		c-0.149,0.588-0.761,0.687-1.199,0.94C52.396,2.003,52.167,2.003,51.936,2.003z"/>
	<path fill="#604D46" d="M47.928,0c-0.037,0.32-0.074,0.64-0.11,0.955C46.84,1.072,46.364,0.797,46.131,0C46.73,0,47.329,0,47.928,0
		z"/>
	<path fill="#D1BDAD" d="M22.637,2.003c0.628-0.611,1.444-0.702,2.352-0.653c0.051,0.244,0.093,0.448,0.136,0.653
		C24.295,2.003,23.466,2.003,22.637,2.003z"/>
	<path fill="#D1BDAD" d="M72.69,0c1.198,0,2.396,0,3.593,0c0.163,0.218,0.407,0.64,0.476,0.621c0.551-0.16,1.069-0.403,1.597-0.621
		c0.691,0,1.382,0,2.073,0c-0.441,0.319-0.845,0.691-1.334,0.943C78.327,1.34,77.5,1.655,76.698,2.003c-1.105,0-2.211,0-3.317,0
		c-0.106-0.184-0.157-0.47-0.327-0.536C71.929,1.031,71.835,0.711,72.69,0z"/>
	<path fill="#D1BDAD" d="M65.642,0c1.245,0,2.488,0,3.732,0c-0.046,0.667-0.092,1.336-0.138,2.003c-2.35,0-4.699,0-7.048,0
		c-0.012-0.116-0.032-0.233-0.034-0.349c-0.014-0.707,0.171-0.929,0.82-0.994c1.14-0.114,1.481,0.04,1.715,0.702
		c0.052,0.148,0.279,0.342,0.438,0.35c0.212,0.011,0.589-0.105,0.627-0.227C65.905,0.995,66.107,0.47,65.642,0z"/>
	<path fill="#604D46" d="M65.642,0c0.465,0.47,0.263,0.995,0.111,1.486c-0.038,0.122-0.415,0.238-0.627,0.227
		c-0.158-0.008-0.386-0.202-0.438-0.35c-0.233-0.662-0.575-0.816-1.715-0.702c-0.648,0.065-0.833,0.287-0.82,0.994
		c0.002,0.116,0.022,0.232,0.034,0.349c-0.139,0-0.277,0-0.415,0c-0.066-0.434-0.23-0.77-0.848-0.814
		c-0.14-0.01-0.335-0.232-0.371-0.379c-0.063-0.261-0.022-0.54-0.025-0.81C62.233,0,63.938,0,65.642,0z"/>
	<path fill="#D1BDAD" d="M81.812,2.003c-0.967,0-1.935,0-2.902,0c0.074-0.043,0.15-0.083,0.221-0.13C80.07,1.25,81.01,0.625,81.95,0
		c0.967,0,1.935,0,2.902,0c0.232,0.98,0.073,1.154-1.048,1.135c-0.317-0.005-0.636-0.021-0.953-0.014
		C81.957,1.138,81.879,1.208,81.812,2.003z"/>
	<path fill="#D1BDAD" d="M87.021,2.003c-1.797,0-2.308,0-4.104,0c0.178-0.119,0.345-0.322,0.537-0.341
		c0.513-0.047,1.037-0.036,1.554-0.009c0.486,0.025,0.662-0.146,0.646-0.545C85.639,0.74,85.67,0.37,85.682,0
		c0.783,0,0.557,0,1.34,0"/>
	<path fill="#604D46" d="M81.95,0c-0.939,0.625-1.879,1.25-2.82,1.874c-0.07,0.046-0.146,0.087-0.221,0.13c-0.737,0-1.474,0-2.211,0
		c0.802-0.349,1.628-0.664,2.397-1.061C79.585,0.691,79.988,0.319,80.43,0C80.936,0,81.443,0,81.95,0z"/>
	<path fill="#604D46" d="M85.682,0c-0.011,0.37-0.042,0.74-0.028,1.109c0.016,0.399-0.161,0.57-0.646,0.545
		c-0.517-0.027-1.041-0.039-1.554,0.009c-0.191,0.019-0.358,0.222-0.537,0.341c-0.369,0-0.737,0-1.105,0
		c0.067-0.795,0.146-0.866,1.039-0.883c0.317-0.006,0.636,0.009,0.953,0.014C84.925,1.154,85.084,0.98,84.852,0
		C85.129,0,85.405,0,85.682,0z"/>
	<path fill="#D1BDAD" d="M60.529,0c0.003,0.271-0.038,0.549,0.025,0.81c0.036,0.147,0.231,0.37,0.371,0.379
		c0.618,0.044,0.782,0.38,0.848,0.814c-0.773,0-1.157,0-1.945,0c0-0.667,0-1.336,0-2.003C60.191,0,60.165,0,60.529,0z"/>
	<path fill="#D1BDAD" d="M69.926,0c0.507,0,1.014,0,1.521,0c0.092,0.667,0.184,1.336,0.276,2.003c-0.599,0-1.198,0-1.797,0
		C69.926,1.336,69.926,0.667,69.926,0z"/>
	<path fill="#604D46" d="M71.723,2.003C71.631,1.336,71.539,0.667,71.447,0c0.415,0,0.829,0,1.244,0
		c-0.855,0.711-0.762,1.031,0.364,1.468c0.169,0.066,0.221,0.352,0.327,0.536C72.829,2.003,72.276,2.003,71.723,2.003z"/>
	<path fill="#604D46" d="M69.926,0c0,0.667,0,1.336,0,2.003c-0.23,0-0.46,0-0.69,0C69.282,1.336,69.328,0.667,69.374,0
		C69.558,0,69.743,0,69.926,0z"/>
	<path fill="#604D46" d="M78.356,0c-0.528,0.218-2.533,1.418-3.084,1.578c-0.068,0.02-1.174-1.36-1.337-1.578
		C74.626,0,77.666,0,78.356,0z"/>
	<path fill="#D1BDAD" d="M6.33,2.003c0.586-0.756,1.303-0.756,1.796,0C7.527,2.003,6.929,2.003,6.33,2.003z"/>
	<path fill="#604D46" d="M14.622,2.003c0.795-0.537,1.257-0.537,1.658,0C15.728,2.003,15.175,2.003,14.622,2.003z"/>
</g>
<rect x="-0.021" y="2.003" fill="#CDC2BF" width="87.043" height="12.997"/>
</svg>
