<svg xmlns="http://www.w3.org/2000/svg" width="131" height="17" viewBox="0 0 130.789 16.998">
    <path fill="#604d46" d="M-.02 0h130.8v16.998H-.02z"/>
    <g fill="#d1bdad">
        <path d="M67.985 13.996h3.524l-2.73 1.483L65.7 17H52.02c.083-.394-.2-.83.273-1.293.318-.318 1.918-.022 2.872.004 2.203.062 2.202.07 2.245-1.713h1.66c-.524 1.04-.235 1.612.883 1.754 1.518.2 1.947-.347 1.398-1.754h4.146c.605.803 1.297.803 2.5 0zm42.92 3.002h-5.4c-.244-.327-.6-.96-.713-.93-.827.24-1.604.604-2.396.93h-3.1c.662-.48 1.268-1.036 2.002-1.413 1.152-.596 2.393-1.066 3.596-1.6h4.977c.158.276.235.704.5.803 1.687.654 1.83 1.132.545 2.2zm-61.572 0H46.63c0-.67 1.468-.78 1.593-1.28.224-.757-1.453-1.225-2.62-1.03-1.014.158-1.373 1.568-1.438 2.05l-.023.26h-3.1l-.208-3.002h9.538L50.3 15.92c-.024.203-.3.383-.404.508-.543.57.001-.001-.543.57zm72.148 0h-5.6l1.94-3.002h8.84l.05.522c.02 1.06-.256 1.392-1.23 1.488-1.7.172-2.573-.07-2.573-1.05 0-.645-.418-.514-.656-.525-.317-.016-2.063.02-2.797.865-.594.595 1.84.392 2.022 1.703zM12.004 13.996h3.525c-.35 1.228-1.208 2.173-2.28 3.002H5.785l1.45-3.002h3.732c-.66.38-1.575.528-1.8 1.4-.134.547.58.37.928.344.656-.125 1.817-.2 1.907-1.753zm66.97 3.002h-10.16c1.852-.7 2.695-2.007 4.77-3.002h2.498c-.124.54.443 1.23.857 1.646.533.3 2.478.164 2.034 1.356zm-62.615-3.002h7.67l-.207 3.002h-3.1c-.35-1.194-1.064-1.604-2.53-1.433-.475 0-.1.953-.165 1.433h-1.244l-.414-3.002zm9.942 0h7.678c-.26.896-.372 1.438-1.672 1.274-1.138-.142-1.426-.02-2.6-.008-1.974.02-2.04.08-1.963 1.735h-2.696l.785-2.07c.126-.318.304-.62.458-.93zm54.953 0h5.392c-.478 1.8-.478 1.8-1.967 1.76-1.35-.028-1.415.03-1.35 1.242H80c.095-.537-.03-1.327.332-1.556.648-.4.888-.836.912-1.446zm15.967 0h4.354l-.33.194-4.23 2.808H92.66c-.35-1.47-.1-1.73 1.573-1.7l1.43.022c1.338-.026 1.456-.13 1.556-1.323zm-5.806 3.002H87.9c.005-.554.066-1.112-.002-1.66-.057-.456-.27-.896-.413-1.343h8.087c-.268.178-.518.483-.805.5-.77.07-1.557.055-2.332.014-.73-.04-.993.217-.97.816.02.553-.026 1.105-.043 1.66zm-87.714 0H0v-3.002h1.43c-.54.6.12.55.47.58 1.818.147 1.817.138 1.8 1.72l.02.7zm32.562-3.002c0 .563-.274 2.3-1.775 1.942-.045-.01-.056-.01-.047-.004-.402-.068-.8-.1-1.116-.1-1.13.036-2.274.088-3.393-.016-1.128-.104-1.614.217-1.548 1.17h7.88c-.006-.042-.034-.076-.048-.115.028.04.048.08.048.115h2.488l.208-3.002-2.696.001zm92.888 3.002c-.004-.406.058-.823-.037-1.214-.054-.22-.347-.555-.557-.568-.927-.066-1.173-.568-1.27-1.22h3.504v3.002h-1.64zm-14.1 0h-2.28l-.416-3.002h2.696v3.002zm-59-3.002c-.942.917-2.167 1.052-3.528.978-.418 0-.14-.672-.204-.978h3.732z"/>
        <path d="M80.423 13.996c-.88 1.133-1.953 1.133-2.694 0h2.694zm-31.09 3.002H46.63M21.935 3.004h-3.522L21.14 1.52 24.216 0h13.676l-.274 1.294c-.962 0-1.917.023-2.87-.004-2.202-.06-2.2-.07-2.244 1.714h-1.658c.523-1.04.235-1.614-.882-1.755-1.517-.192-1.945.347-1.397 1.755h-2.734c-.25-1.646-2.704-.805-3.897 0zM39.55 0h3.73c-.002.144-.04.296 0 .43.222.727 1.093 1.287 1.903 1.16 1.014-.16.495-.85.56-1.33l.023-.26h3.1l.208 3.004H39.55c.02-.642.032-.498-.156-1.1-.134-.508-.37-1-.266-1.125A12.07 12.07 0 0 1 39.55 0zm38.337 3.004h-3.523C74.712 1.776 75.572.83 76.642 0h7.46l-1.45 3.004h-3.73c.658-.38 2.165-1.043 1.8-1.4-.3-.486-.988-.505-1.22-.515-1.977-.094-1.526.36-1.615 1.925zM10.953 0h10.155c-1.85.7-3.38 1.77-4.767 3.004h-3.73c.124-.54 1.486-1.646.376-1.646-2.32-.044-2.48-.165-2.034-1.358zm62.582 3.004h-7.667L66.076 0h3.108c.35 1.196 1.063 1.607 2.528 1.432L71.876 0h1.244l.415 3.004zm-9.947 0h-8.912c.26-.896.714-1.438 2.014-1.276 1.137.14 2.32.02 3.484.008 1.973-.018 2.04-.08 1.96-1.736h2.694l-.783 2.072c-.126.32-.304.622-.458.932z"/>
        <path d="M8.674 3.004H3.286c.477-1.792.477-1.792 1.965-1.76C6.6 1.272 6.666 1.212 6.6 0h3.316c-.094.538.032 1.328-.33 1.557-.648.4-.888.835-.912 1.447zM.001 0h2.04c-.005.554-.067 1.114.002 1.66.057.456.27.897.413 1.344-1.218 0 .238 0-2.457 0M86.175 0h4.094v3.004h-1.814c.54-.598-.12-.55-.47-.58-1.816-.15-1.816-.14-1.8-1.722C86.2.47 86.17.234 86.165 0zM53.642 0v3.004h-2.694L51.155 0h2.487zm7.874 0c.067.953-.42 1.274-1.547 1.17-1.118-.104-2.26-.052-3.4-.016-1 .032-1.566-.303-1.693-1.155h6.63zm-27.56 3.004c.942-.917 2.165-1.052 3.527-.98l.203.98h-3.73zM109.007 0h2.753c.245.327.162 2.062 1.1 2.062.843 0 3.853-1.734 4.644-2.062h3.108c-.66.478-1.267 1.037-2 1.414-1.152.596-2.392 1.068-3.594 1.6h-4.975c-.158-.276-.235-.704-.5-.803-1.688-.656-1.828-1.134-.546-2.2zm-10.57 0h5.597l-.207 3.004H93.26l-.05-.522c-.02-1.06.256-1.393 1.23-1.5 1.7-.17 2.223.06 2.57 1.053.078.222.42.513.656.525.318.017.883-.158.94-.34.23-.738.532-1.525-.166-2.23z"/>
        <path d="M122.684 3.004h-4.353l.332-.195 4.23-2.8h4.352c.35 1.47.1 1.73-1.572 1.702l-1.428-.02c-1.342.025-1.46.13-1.56 1.323zm8.103 0h-6.445c.268-.178.52-.483.806-.5.77-.07 1.556-.054 2.33-.013.73.038.993-.218.97-.817-.024-.553.023-1.1.04-1.663h2.302M90.77 0c.004.406-.057.824.038 1.215.053.22.346.554.556.57.926.066 1.172.57 1.27 1.22H89.72V0h1.052zm14.093 0h2.28l.415 3.004h-2.694L104.863 0zM9.502 3.004c.878-1.134 1.954-1.134 2.694 0H9.502z"/>
    </g>
    <path fill="#cdc2bf" d="M0 3.004h130.79v10.992H0z"/>
</svg>
