<?xml version="1.0" encoding="UTF-8" standalone="no"?>
<svg
   xmlns:dc="http://purl.org/dc/elements/1.1/"
   xmlns:cc="http://creativecommons.org/ns#"
   xmlns:rdf="http://www.w3.org/1999/02/22-rdf-syntax-ns#"
   xmlns:svg="http://www.w3.org/2000/svg"
   xmlns="http://www.w3.org/2000/svg"
   xmlns:sodipodi="http://sodipodi.sourceforge.net/DTD/sodipodi-0.dtd"
   xmlns:inkscape="http://www.inkscape.org/namespaces/inkscape"
   version="1.1"
   id="svg3743"
   sodipodi:docname="dfc-emrakul.svg"
   width="327"
   height="327"
   inkscape:version="0.92.2 (5c3e80d, 2017-08-06)">
  <metadata
     id="metadata3749">
    <rdf:RDF>
      <cc:Work
         rdf:about="">
        <dc:format>image/svg+xml</dc:format>
        <dc:type
           rdf:resource="http://purl.org/dc/dcmitype/StillImage" />
        <dc:title></dc:title>
      </cc:Work>
    </rdf:RDF>
  </metadata>
  <defs
     id="defs3747" />
  <sodipodi:namedview
     pagecolor="#ffffff"
     bordercolor="#666666"
     borderopacity="1"
     objecttolerance="10"
     gridtolerance="10"
     guidetolerance="10"
     inkscape:pageopacity="0"
     inkscape:pageshadow="2"
     inkscape:window-width="1920"
     inkscape:window-height="1017"
     id="namedview3745"
     showgrid="false"
     inkscape:zoom="2.36"
     inkscape:cx="50"
     inkscape:cy="168.64407"
     inkscape:window-x="-8"
     inkscape:window-y="-8"
     inkscape:window-maximized="1"
     inkscape:current-layer="svg3743" />
  <path
     d="M 163.49936,0 C 253.79798,0 327,73.20138 327,163.5 327,253.79862 253.79798,327 163.5,327 73.201377,327 0,253.79862 0,163.5 0,73.20138 73.201377,0 163.5,0 Z m -0.70573,23.44117 c -5.65991,1.23009 -8.98037,6.15361 -12.87371,10.01055 -26.50552,29.82597 -60.18716,51.84099 -94.259027,72.00067 -9.762739,4.05174 -10.05525,16.59653 -6.297305,24.94397 21.673969,5.2716 44.61634,1.4153 66.142772,7.22402 9.61649,6.15105 9.12854,18.84209 6.58982,28.55629 -6.68689,9.32334 -19.37858,13.52133 -23.772006,24.45539 5.076806,10.29986 12.438136,19.97127 18.588546,29.63565 -2.92831,9.27543 -6.48252,21.03338 2.74246,27.91571 -0.43877,-3.36772 -1.6746,-11.62191 -0.75939,-13.37634 0.91586,-1.7538 4.19544,-3.96616 5.78765,-2.73224 1.36356,3.52227 8.15201,20.0626 12.35,30.06931 -2.32477,-0.93438 -5.57433,-1.51301 -9.06148,-2.85423 -3.61424,-1.38975 -7.46799,-3.54271 -9.87834,-4.51157 4.19799,11.08031 13.47279,17.61648 22.99155,23.81607 -0.48858,3.66087 -1.46447,10.93406 -2.00223,14.54639 -9.66439,-0.6342 -21.33101,-4.39342 -8.34681,-18.54959 -2.92831,2.92959 -8.71276,7.80968 -11.22976,11.31727 -7.40477,10.32221 10.59556,14.79867 16.69679,19.92337 5.2237,-4.88073 14.40078,-8.15137 13.7653,-16.8405 0.68402,-22.74694 10.83698,-43.63917 13.13109,-66.23985 1.51366,22.69839 9.22626,46.98836 12.74023,66.39122 1.49705,8.26249 8.2989,11.66214 13.47278,16.44516 7.61553,-4.00192 22.08847,-11.13142 20.8801,-14.18746 -2.92064,-7.38688 -9.60371,-10.75587 -14.97366,-16.61377 11.61808,13.61904 2.54894,18.2922 -7.06882,18.29156 -1.06722,6.4e-4 -2.21172,-3.81287 -2.89829,-7.55102 -0.47645,-2.59364 -0.67636,-5.13683 -1.2601,-7.71388 10.9347,-4.24652 19.57465,-11.91059 23.47949,-23.1378 -4.68593,1.85534 -14.15552,5.51621 -18.89064,7.37091 5.90644,-9.90899 6.236,-23.01071 16.42537,-31.35815 3.54654,-2.90404 1.31566,20.51031 3.49034,16.47454 6.57768,-12.2031 4.34488,-17.6746 0.82963,-27.43798 6.15105,-9.7621 13.18028,-19.03689 18.35416,-29.38593 -5.22306,-10.34776 -16.8405,-15.03434 -23.82119,-23.9668 -2.73287,-9.7142 -3.22146,-22.40589 6.29731,-28.70256 21.62415,-5.90643 44.77664,-1.63883 66.533,-7.17611 2.44484,-0.62207 2.74821,-2.29092 3.20294,-4.87051 1.01485,-5.74869 2.28261,-13.00656 -1.88536,-15.53314 C 249.42244,92.7607 220.26069,75.87166 195.60987,53.07491 184.72434,44.04473 176.32836,32.47583 165.29658,23.5919 Z m 6.0661,176.61194 c 7.12694,9.17707 14.3516,18.35415 21.96648,27.18954 -2.53872,7.95657 -5.17451,15.86397 -8.00575,23.72283 -6.83379,-16.30338 -11.76369,-33.33932 -13.96073,-50.91237 z m -11.95913,-0.24398 c -2.19639,17.57306 -6.98004,34.60899 -13.66821,50.96091 -2.87977,-7.56571 -5.66183,-15.18059 -8.4937,-22.74694 -0.0211,-0.0715 14.93726,-18.6952 22.16191,-28.21397 z m 21.72187,-21.67333 c 10.44612,2.97749 20.50201,7.17548 29.87388,12.69169 -4.24653,7.2732 -8.63995,14.44868 -13.08192,21.62415 -6.78525,-10.83634 -12.49625,-22.30753 -16.79196,-34.31584 z m -31.43607,0 c -4.24653,12.05685 -10.57065,22.52468 -17.30736,33.36103 -4.44197,-7.17548 -8.27081,-13.44468 -12.56651,-20.66934 9.42105,-5.46703 19.42776,-9.7142 29.87387,-12.69169 z"
     id="path3741"
     inkscape:connector-curvature="0"
     style="stroke-width:0.31933594" />
</svg>
