<?xml version="1.0" encoding="UTF-8" standalone="no"?>
<!-- Created with Inkscape (http://www.inkscape.org/) -->

<svg
   xmlns:dc="http://purl.org/dc/elements/1.1/"
   xmlns:cc="http://creativecommons.org/ns#"
   xmlns:rdf="http://www.w3.org/1999/02/22-rdf-syntax-ns#"
   xmlns:svg="http://www.w3.org/2000/svg"
   xmlns="http://www.w3.org/2000/svg"
   xmlns:sodipodi="http://sodipodi.sourceforge.net/DTD/sodipodi-0.dtd"
   xmlns:inkscape="http://www.inkscape.org/namespaces/inkscape"
   version="1.1"
   id="svg10"
   width="327"
   height="327"
   viewBox="0 0 327 327"
   sodipodi:docname="dfc-moon.svg"
   inkscape:version="0.92.2 (5c3e80d, 2017-08-06)">
  <metadata
     id="metadata16">
    <rdf:RDF>
      <cc:Work
         rdf:about="">
        <dc:format>image/svg+xml</dc:format>
        <dc:type
           rdf:resource="http://purl.org/dc/dcmitype/StillImage" />
        <dc:title></dc:title>
      </cc:Work>
    </rdf:RDF>
  </metadata>
  <defs
     id="defs14" />
  <sodipodi:namedview
     pagecolor="#ffffff"
     bordercolor="#666666"
     borderopacity="1"
     objecttolerance="10"
     gridtolerance="10"
     guidetolerance="10"
     inkscape:pageopacity="0"
     inkscape:pageshadow="2"
     inkscape:window-width="1920"
     inkscape:window-height="1017"
     id="namedview12"
     showgrid="false"
     inkscape:zoom="3.6684618"
     inkscape:cx="197.95106"
     inkscape:cy="252.37095"
     inkscape:window-x="-8"
     inkscape:window-y="-8"
     inkscape:window-maximized="1"
     inkscape:current-layer="svg10" />
  <path
     style="fill:#000000;stroke-width:0.63938969"
     d="M 144.33009,326.26623 C 106.26265,321.1799 73.372748,305.09053 47.011271,278.65896 22.579897,254.16262 6.7345749,222.33 1.2040022,186.63399 -0.40346415,176.25892 -0.40086538,150.96595 1.2089999,140.62 8.5974704,93.128995 34.558177,52.346638 73.690666,26.756625 129.37183,-9.6551186 200.77647,-8.8450276 256.25485,28.827829 c 37.50456,25.467638 62.18412,65.14862 69.5291,111.792171 1.61033,10.22619 1.62409,35.62641 0.0248,45.69445 -3.30576,20.81036 -9.7163,39.99254 -18.79479,56.23935 -25.28837,45.25592 -67.97444,74.85734 -119.84625,83.10956 -9.22309,1.46728 -33.7811,1.8129 -42.8373,0.60287 z m 38.80644,-6.41305 c 24.83392,-3.25122 46.80849,-11.45053 67.53562,-25.19936 36.5032,-24.21352 60.40726,-61.00523 68.38268,-105.2506 1.30981,-7.26646 1.47834,-10.205 1.47834,-25.77623 0,-15.57123 -0.16853,-18.50976 -1.47834,-25.77623 C 314.17287,110.76704 303.70081,87.150723 287.26837,66.166783 266.53998,39.696973 235.63713,19.57965 202.83995,11.205069 187.65838,7.3285369 182.35612,6.7313543 163.1788,6.7381137 143.87974,6.7449039 137.30884,7.5554425 121.53175,11.875321 85.094089,21.85221 53.322932,44.911983 31.970216,76.87984 20.288166,94.369426 11.961262,115.44994 8.0223531,137.50662 6.0508997,148.54614 5.561782,171.39629 7.0528337,182.79949 c 3.5985003,27.52041 13.7613623,52.89745 29.8420233,74.51664 25.607914,34.42782 63.537313,56.67631 106.629403,62.54626 8.87615,1.20911 30.34451,1.20412 39.61227,-0.009 z M 145.90701,302.6274 C 119.41532,298.8639 96.388853,289.13418 76.069326,273.11785 70.20977,268.49919 58.772244,257.11869 54.02299,251.18141 28.434886,219.19247 18.014196,176.47207 26.040703,136.46595 38.262997,75.546994 87.82959,30.683171 150.02326,24.246568 c 9.81781,-1.016073 26.98103,-0.413833 36.82429,1.292125 24.48952,4.244339 47.42449,14.754764 65.8887,30.194862 6.6777,5.584011 17.2929,16.405136 21.51927,21.93673 19.13948,25.050255 29.33657,54.927915 29.33657,85.956705 0,31.76893 -10.61429,62.16839 -30.49763,87.34559 -4.62308,5.85394 -16.01449,17.28052 -21.95746,22.02521 -18.30036,14.61052 -40.47126,24.51685 -64.28945,28.72558 -10.04143,1.77436 -31.48172,2.24779 -40.94054,0.90403 z m 27.48173,-22.06093 c 11.56217,-1.12303 11.6304,-1.18527 3.57187,-3.25847 -27.36763,-7.04082 -52.19776,-24.76748 -67.97078,-48.52551 C 90.18551,200.45855 84.497123,164.87779 93.566844,132.31191 104.61113,92.656063 135.12126,61.90105 174.64662,50.581347 c 3.82048,-1.094146 7.55288,-2.007588 8.29423,-2.029867 1.33864,-0.04023 1.33893,-0.04415 0.0416,-0.569344 -0.71848,-0.290859 -5.46822,-0.876392 -10.55498,-1.301184 -24.91921,-2.080988 -51.89506,4.741559 -72.578561,18.356078 -27.065571,17.815378 -45.10773,44.26746 -51.471097,75.46313 -6.953557,34.08902 2.117204,70.52062 24.295548,97.58004 4.302846,5.24984 14.180443,14.84842 19.183387,18.64153 23.212733,17.59929 53.783433,26.53996 81.532013,23.84474 z"
     id="path20"
     inkscape:connector-curvature="0" />
</svg>
